<svg xmlns="http://www.w3.org/2000/svg" xmlns:xlink="http://www.w3.org/1999/xlink" width="1024" zoomAndPan="magnify" viewBox="0 0 768 767.999994" height="1024" preserveAspectRatio="xMidYMid meet" version="1.0"><defs><clipPath id="edf25682b0"><path d="M 721.207031 768 L 46.792969 768 C 21.007812 768 0 746.992188 0 721.207031 L 0 46.792969 C 0 21.007812 21.007812 0 46.792969 0 L 721.207031 0 C 746.992188 0 768 21.007812 768 46.792969 L 768 721.207031 C 768 746.992188 746.992188 768 721.207031 768 Z M 721.207031 768 " clip-rule="nonzero"/></clipPath><clipPath id="06bd024067"><path d="M 104 85.492188 L 668 85.492188 L 668 677 L 104 677 Z M 104 85.492188 " clip-rule="nonzero"/></clipPath></defs><g clip-path="url(#edf25682b0)"><rect x="-76.8" width="921.6" fill="#90887a" y="-76.799999" height="921.599993" fill-opacity="1"/></g><g clip-path="url(#06bd024067)"><path fill="#fff5e6" d="M 661.207031 261.1875 C 663.671875 205.066406 665.441406 148.910156 667.832031 92.78125 C 667.902344 91.898438 667.765625 91.042969 667.433594 90.226562 C 667.097656 89.40625 666.59375 88.703125 665.925781 88.121094 C 665.476562 87.339844 664.863281 86.714844 664.089844 86.253906 C 663.3125 85.789062 662.476562 85.546875 661.570312 85.519531 C 557.417969 91.882812 453.117188 101 350 117.222656 C 346.976562 113.46875 339.351562 114.386719 339.035156 120.597656 C 334.175781 215.699219 330.511719 310.863281 325.40625 405.941406 C 324.082031 430.703125 322.726562 455.484375 321 480.234375 C 320.171875 480.558594 319.519531 481.097656 319.039062 481.84375 C 317.96875 481.429688 316.867188 481.277344 315.726562 481.382812 C 314.589844 481.488281 313.53125 481.84375 312.558594 482.445312 C 312.277344 482.367188 311.988281 482.289062 311.691406 482.21875 C 311.371094 482.058594 311.042969 481.921875 310.710938 481.796875 C 309.46875 481.417969 308.207031 481.316406 306.921875 481.488281 C 303.691406 481.21875 300.457031 481.140625 297.21875 481.253906 C 258.378906 471.804688 213.96875 488.296875 180.449219 506.5625 C 160.132812 517.632812 142.429688 532.558594 129.667969 550.828125 C 121.765625 558.753906 115.609375 567.855469 111.199219 578.140625 C 99.777344 605.453125 102.628906 650.535156 131.335938 666.191406 C 161.222656 682.484375 202.109375 675.769531 233.355469 666.964844 C 265.496094 657.910156 292.433594 639.546875 308.996094 610.101562 C 313.109375 602.757812 316.554688 595.117188 319.332031 587.171875 C 322.914062 578.945312 325.421875 570.40625 326.855469 561.550781 C 332.699219 525.382812 334.226562 488.296875 336.453125 451.78125 C 339.746094 397.746094 342.230469 343.664062 344.605469 289.582031 C 345.292969 274.03125 345.929688 258.476562 346.519531 242.925781 C 419.070312 234.019531 491.609375 225.058594 564.144531 216.035156 L 617.042969 209.464844 C 623.78125 208.628906 632.972656 208.996094 640.121094 206.5 C 640.425781 206.628906 640.746094 206.71875 641.074219 206.765625 C 644.214844 207.382812 647.265625 207.09375 650.234375 205.898438 C 647.632812 263.121094 645.082031 320.351562 642.007812 377.550781 C 640.683594 402.3125 639.328125 427.09375 637.601562 451.84375 C 636.773438 452.167969 636.121094 452.703125 635.636719 453.453125 C 634.570312 453.039062 633.46875 452.886719 632.328125 452.992188 C 631.1875 453.097656 630.132812 453.453125 629.160156 454.054688 C 628.875 453.976562 628.589844 453.898438 628.292969 453.828125 C 627.972656 453.667969 627.644531 453.527344 627.308594 453.40625 C 626.070312 453.027344 624.808594 452.921875 623.523438 453.09375 C 620.292969 452.824219 617.058594 452.746094 613.816406 452.859375 C 574.980469 443.414062 530.566406 459.90625 497.046875 478.167969 C 476.730469 489.242188 459.03125 504.167969 446.265625 522.433594 C 438.367188 530.359375 432.214844 539.464844 427.804688 549.75 C 416.382812 577.0625 419.234375 622.148438 447.9375 637.800781 C 477.824219 654.09375 518.714844 647.371094 549.964844 638.574219 C 582.109375 629.515625 609.046875 611.152344 625.609375 581.707031 C 629.722656 574.367188 633.167969 566.726562 635.945312 558.78125 C 639.523438 550.554688 642.035156 542.015625 643.46875 533.160156 C 649.3125 496.992188 650.832031 459.90625 653.0625 423.390625 C 656.347656 369.355469 658.832031 315.269531 661.207031 261.1875 Z M 284.582031 487.050781 C 284.609375 487.289062 284.652344 487.527344 284.714844 487.757812 C 280.410156 487.464844 276.113281 487.355469 271.824219 487.433594 C 276.050781 487.15625 280.300781 487.015625 284.582031 487.050781 Z M 211.230469 501.84375 C 204.878906 504.863281 198.769531 508.304688 192.902344 512.175781 C 191.378906 512.808594 189.863281 513.460938 188.355469 514.128906 C 187.257812 513.972656 186.210938 514.136719 185.210938 514.625 C 184.238281 515.078125 183.257812 515.550781 182.277344 516.015625 C 191.625 510.667969 201.277344 505.945312 211.230469 501.84375 Z M 157.441406 544.792969 C 156.765625 545.652344 156.089844 546.507812 155.433594 547.382812 C 155.070312 547.824219 154.785156 548.316406 154.585938 548.851562 C 154.382812 549.390625 154.277344 549.945312 154.261719 550.515625 C 154.246094 551.089844 154.328125 551.648438 154.5 552.195312 C 154.675781 552.742188 154.933594 553.246094 155.273438 553.707031 C 153.539062 555.648438 151.8125 557.609375 150.105469 559.582031 L 150.054688 559.433594 C 149.894531 558.980469 149.667969 558.566406 149.375 558.1875 C 149.082031 557.8125 148.734375 557.492188 148.335938 557.226562 C 147.9375 556.960938 147.507812 556.765625 147.046875 556.640625 C 146.585938 556.519531 146.113281 556.46875 145.636719 556.5 C 149.296875 552.320312 153.230469 548.417969 157.441406 544.792969 Z M 140.789062 649.800781 C 140.140625 649.375 139.484375 648.957031 138.851562 648.5 C 136.730469 646.949219 134.734375 645.25 132.867188 643.40625 C 132.964844 643.289062 133.054688 643.164062 133.140625 643.035156 C 133.15625 643.003906 133.164062 642.976562 133.179688 642.949219 C 135.792969 644.5 138.558594 645.6875 141.480469 646.519531 C 140.992188 647.558594 140.761719 648.652344 140.789062 649.800781 Z M 144.957031 606.285156 C 143.171875 609.175781 141.464844 612.121094 139.835938 615.121094 C 138.839844 610.894531 137.5625 606.761719 135.996094 602.714844 C 136.03125 598.726562 136.472656 594.78125 137.308594 590.882812 C 140.222656 587.601562 143.09375 584.273438 145.917969 580.90625 C 147.066406 584.285156 148.183594 587.675781 149.269531 591.074219 C 146.917969 595.886719 145.480469 600.957031 144.957031 606.289062 Z M 155.703125 625.851562 C 155.628906 625.824219 155.570312 625.792969 155.5 625.765625 C 155.953125 625.796875 156.40625 625.8125 156.855469 625.835938 C 156.867188 625.929688 156.855469 626.035156 156.875 626.128906 C 156.476562 626.082031 156.082031 625.988281 155.703125 625.855469 Z M 167.824219 645.765625 C 167.851562 645.722656 167.882812 645.675781 167.910156 645.632812 C 173.171875 645.304688 178.386719 644.609375 183.550781 643.542969 C 183.582031 643.722656 183.613281 643.898438 183.65625 644.074219 C 178.429688 645.117188 173.152344 645.683594 167.824219 645.769531 Z M 170.0625 615.667969 C 170.570312 613.902344 171.160156 612.160156 171.761719 610.492188 C 171.398438 612.160156 171.089844 613.859375 170.804688 615.570312 Z M 190.300781 569.621094 C 190.449219 569.328125 190.617188 569.042969 190.773438 568.753906 C 190.878906 568.664062 190.988281 568.578125 191.09375 568.488281 C 190.820312 568.863281 190.570312 569.246094 190.300781 569.625 Z M 191.363281 590.441406 L 191.5 590.324219 C 193.285156 588.765625 195.101562 587.246094 196.910156 585.714844 C 196.933594 585.890625 196.945312 586.070312 196.972656 586.246094 C 194.851562 588.710938 192.714844 591.164062 190.558594 593.601562 C 190.117188 594.09375 189.675781 594.578125 189.234375 595.074219 C 189.910156 593.511719 190.617188 591.96875 191.363281 590.445312 Z M 191.804688 602.695312 C 194.492188 599.425781 197.207031 596.179688 199.953125 592.957031 C 197.175781 598.242188 194.367188 603.503906 191.457031 608.707031 L 190.777344 609.917969 C 188.746094 610.800781 186.675781 611.601562 184.578125 612.316406 C 187.121094 608.898438 189.496094 605.507812 191.800781 602.699219 Z M 193.371094 631.878906 C 192.78125 631.378906 192.109375 631.046875 191.355469 630.882812 C 190.601562 630.71875 189.851562 630.746094 189.109375 630.957031 C 189.730469 630.449219 190.335938 629.910156 190.925781 629.351562 C 191.570312 630.414062 192.453125 631.210938 193.578125 631.738281 Z M 202.304688 653.113281 C 199.40625 653.691406 196.449219 654.226562 193.457031 654.707031 C 198.542969 653.398438 203.542969 651.824219 208.460938 649.984375 C 208.945312 650.546875 209.523438 650.984375 210.191406 651.300781 C 207.578125 651.972656 204.953125 652.589844 202.300781 653.117188 Z M 203.742188 638.191406 C 205.488281 637.273438 207.304688 636.523438 209.191406 635.9375 C 209.183594 635.960938 209.175781 635.988281 209.167969 636.011719 C 207.367188 636.769531 205.558594 637.5 203.738281 638.191406 Z M 213.230469 621.796875 C 212.570312 622.710938 212.289062 623.726562 212.378906 624.84375 C 210.824219 625.070312 209.300781 625.359375 207.808594 625.710938 C 209.679688 624.324219 211.574219 622.960938 213.417969 621.539062 Z M 215.171875 589.8125 C 214.851562 589.503906 214.523438 589.203125 214.203125 588.898438 C 214.945312 587.425781 215.683594 585.949219 216.421875 584.46875 L 219.070312 584.386719 C 217.75 586.183594 216.449219 587.992188 215.171875 589.8125 Z M 223.367188 629.394531 C 223.363281 629.078125 223.335938 628.765625 223.28125 628.457031 C 226.4375 627.289062 229.53125 625.992188 232.570312 624.570312 C 229.535156 626.214844 226.464844 627.832031 223.371094 629.398438 Z M 223.28125 571.054688 C 225.988281 568.976562 228.796875 567.050781 231.710938 565.273438 C 233.355469 564.277344 235.035156 563.355469 236.726562 562.457031 C 233.792969 565.78125 230.933594 569.167969 228.148438 572.617188 C 226.5625 571.972656 224.941406 571.453125 223.277344 571.054688 Z M 244.277344 597.613281 C 243.160156 600.984375 242.105469 604.378906 241.164062 607.820312 C 238.6875 609.390625 236.148438 610.871094 233.542969 612.261719 Z M 233.824219 641.964844 C 236.785156 640.335938 239.710938 638.65625 242.597656 636.921875 C 243.136719 637.019531 243.671875 637.105469 244.199219 637.171875 C 240.75 638.792969 237.292969 640.390625 233.824219 641.964844 Z M 250.699219 543.085938 C 250.5 543.144531 250.304688 543.214844 250.109375 543.273438 L 250.882812 542.664062 C 250.824219 542.804688 250.765625 542.945312 250.703125 543.085938 Z M 256.871094 527.828125 L 256.855469 527.84375 L 256.878906 527.8125 Z M 260.441406 585.96875 C 261.453125 583.566406 262.503906 581.179688 263.589844 578.8125 C 265.234375 577.707031 266.96875 576.78125 268.800781 576.027344 C 266.015625 579.335938 263.234375 582.652344 260.449219 585.96875 Z M 282.597656 592.890625 C 280.214844 595.183594 277.792969 597.421875 275.328125 599.601562 C 277.792969 596.484375 280.101562 593.230469 282.292969 589.871094 C 282.832031 590.636719 283.492188 591.273438 284.269531 591.785156 C 283.644531 592.046875 283.089844 592.414062 282.601562 592.886719 Z M 281.019531 524.917969 C 280.785156 524.820312 280.546875 524.742188 280.300781 524.675781 C 281.125 523.820312 281.949219 522.96875 282.796875 522.132812 C 282.207031 523.054688 281.617188 523.984375 281.027344 524.910156 Z M 281.050781 554.644531 L 280.976562 554.824219 L 280.894531 554.839844 Z M 286.417969 541.359375 C 286.0625 540.726562 285.621094 540.164062 285.09375 539.667969 C 286.511719 537.402344 287.945312 535.144531 289.390625 532.894531 C 288.511719 535.71875 287.507812 538.542969 286.421875 541.355469 Z M 292.746094 530.90625 C 292.183594 530.476562 291.5625 530.367188 290.886719 530.574219 C 291.742188 529.25 292.605469 527.929688 293.46875 526.609375 C 293.261719 528.046875 293.019531 529.476562 292.746094 530.902344 Z M 295.398438 513.382812 C 280.910156 514.476562 267.277344 519.316406 253.628906 523.929688 C 242.132812 527.816406 230.707031 532.207031 219.621094 537.15625 C 208.621094 541.847656 198.199219 547.589844 188.351562 554.375 C 178.542969 561.378906 170.808594 569.828125 163.027344 578.921875 C 159.378906 583.175781 152.980469 577.644531 155.019531 573.09375 C 154.773438 572.390625 154.535156 571.683594 154.285156 570.976562 C 159.445312 564.863281 164.671875 558.824219 170.203125 553.097656 C 172.378906 552.132812 174.554688 551.152344 176.734375 550.179688 C 189.136719 540.710938 203.589844 533.453125 217.3125 527.835938 C 229.65625 522.789062 242.34375 518.820312 255.042969 514.808594 C 268.421875 510.585938 282.144531 505.679688 296.078125 509.71875 C 298.285156 510.355469 297.34375 513.230469 295.394531 513.378906 Z M 305.703125 529.328125 C 305.3125 529.894531 304.921875 530.464844 304.535156 531.039062 C 304.625 530.527344 304.695312 530.011719 304.777344 529.496094 C 306.691406 523.457031 307.335938 517.28125 306.722656 510.972656 C 306.847656 510.640625 306.949219 510.304688 307.082031 509.972656 C 307.144531 510.296875 307.28125 510.582031 307.488281 510.835938 C 307.699219 511.089844 307.953125 511.277344 308.257812 511.402344 C 307.628906 517.414062 306.777344 523.390625 305.699219 529.324219 Z M 492.535156 126.230469 L 488.0625 127.289062 C 487.269531 127.039062 486.484375 126.773438 485.707031 126.488281 C 487.980469 126.40625 490.257812 126.3125 492.535156 126.230469 Z M 465.601562 128.867188 C 466.890625 129.863281 468.230469 130.78125 469.589844 131.652344 L 465.070312 132.722656 C 465.265625 131.441406 465.441406 130.160156 465.601562 128.867188 Z M 441.734375 127.726562 C 445.675781 127.636719 449.617188 127.558594 453.558594 127.457031 C 453.457031 128.195312 453.375 128.929688 453.265625 129.65625 C 449.914062 129.53125 446.558594 129.585938 443.203125 129.769531 C 442.371094 129.5 441.519531 129.398438 440.648438 129.460938 C 439.777344 129.523438 438.949219 129.746094 438.167969 130.132812 C 434.980469 130.414062 431.792969 130.769531 428.605469 131.164062 C 427.429688 130.894531 426.265625 130.660156 425.128906 130.464844 C 430.660156 129.53125 436.195312 128.617188 441.734375 127.726562 Z M 407.734375 133.46875 C 407.585938 133.5625 407.453125 133.640625 407.3125 133.738281 C 406.597656 133.800781 405.882812 133.863281 405.167969 133.921875 Z M 349.800781 156.578125 C 349.886719 154.421875 349.976562 152.265625 350.0625 150.109375 C 350.1875 150.527344 350.316406 150.941406 350.449219 151.355469 C 350.21875 153.097656 350.007812 154.839844 349.800781 156.582031 Z M 351.074219 125.019531 C 351.082031 124.769531 351.089844 124.519531 351.101562 124.269531 C 352.003906 124.234375 352.90625 124.222656 353.808594 124.179688 C 353.402344 124.542969 352.988281 124.878906 352.601562 125.300781 C 352.441406 125.472656 352.3125 125.652344 352.160156 125.824219 C 351.8125 125.535156 351.449219 125.269531 351.074219 125.023438 Z M 347.15625 227.367188 C 347.136719 227.367188 347.125 227.382812 347.109375 227.390625 C 347.199219 224.996094 347.289062 222.605469 347.382812 220.210938 C 348.972656 224.039062 355.570312 223.902344 355.582031 218.972656 C 355.582031 218.796875 355.589844 218.625 355.589844 218.453125 C 355.613281 219.25 355.601562 220.042969 355.632812 220.839844 C 355.675781 221.835938 355.910156 222.777344 356.34375 223.675781 Z M 360.035156 136.847656 C 359.945312 136.648438 359.851562 136.445312 359.753906 136.246094 C 359.765625 135.359375 359.898438 134.496094 360.152344 133.648438 C 360.925781 134.136719 361.769531 134.367188 362.683594 134.335938 C 363.035156 134.324219 363.382812 134.320312 363.734375 134.3125 L 363.777344 134.519531 C 363.734375 134.804688 363.695312 135.0625 363.648438 135.386719 C 363.589844 135.851562 363.65625 136.300781 363.839844 136.734375 C 362.558594 136.328125 361.289062 136.367188 360.035156 136.851562 Z M 366.769531 140.214844 C 366.722656 139.886719 366.644531 139.566406 366.527344 139.257812 C 367.894531 140.101562 369.363281 140.382812 370.945312 140.101562 L 373.261719 139.675781 C 373.644531 140.019531 374.078125 140.261719 374.566406 140.414062 C 375.109375 140.5625 375.648438 140.652344 376.1875 140.785156 C 376.019531 141.207031 375.855469 141.632812 375.699219 142.066406 C 375.410156 141.789062 375.097656 141.539062 374.761719 141.320312 C 374.425781 141.097656 374.070312 140.914062 373.703125 140.757812 C 373.332031 140.605469 372.949219 140.488281 372.558594 140.402344 C 372.164062 140.320312 371.765625 140.277344 371.367188 140.265625 C 370.964844 140.257812 370.566406 140.285156 370.171875 140.351562 C 369.773438 140.417969 369.386719 140.519531 369.011719 140.65625 C 368.632812 140.796875 368.273438 140.96875 367.929688 141.171875 C 367.582031 141.375 367.261719 141.613281 366.960938 141.878906 C 366.890625 141.324219 366.839844 140.769531 366.769531 140.21875 Z M 367.519531 212.503906 C 367.519531 210.5 367.589844 208.507812 367.644531 206.511719 C 368.855469 206.367188 370.066406 206.1875 371.277344 206.035156 C 372.535156 205.984375 373.777344 206.078125 375.011719 206.316406 C 372.921875 208.871094 370.421875 210.933594 367.519531 212.507812 Z M 391.828125 186.027344 C 391.347656 185.964844 390.859375 185.898438 390.378906 185.847656 C 390.46875 185.746094 390.550781 185.640625 390.640625 185.539062 C 392.777344 183.039062 394.898438 180.519531 397.03125 178.011719 C 396.8125 180.503906 396.710938 183.027344 396.722656 185.582031 C 395.09375 185.726562 393.460938 185.882812 391.828125 186.03125 Z M 414.09375 154.734375 C 414.261719 154.734375 414.433594 154.722656 414.601562 154.71875 C 415.101562 156.035156 415.820312 157.21875 416.769531 158.261719 C 414.804688 160.878906 412.8125 163.476562 410.828125 166.078125 C 411.625 163.265625 412.578125 160.503906 413.695312 157.800781 C 414.136719 156.820312 414.265625 155.800781 414.09375 154.738281 Z M 430.191406 174.808594 L 416.792969 179.625 C 415.742188 179.988281 414.839844 180.578125 414.085938 181.398438 C 413.332031 182.214844 412.816406 183.164062 412.542969 184.242188 L 411.136719 184.359375 C 413.785156 180.984375 416.417969 177.597656 419.03125 174.199219 C 419.296875 174.65625 419.628906 175.054688 420.03125 175.398438 C 420.429688 175.742188 420.875 176.011719 421.367188 176.207031 C 421.859375 176.398438 422.367188 176.507812 422.894531 176.53125 C 423.421875 176.554688 423.9375 176.488281 424.441406 176.339844 L 430.242188 174.441406 Z M 500.90625 198.15625 C 488.40625 199.238281 475.90625 200.316406 463.40625 201.394531 L 485.300781 198.800781 L 501.582031 196.875 C 501.265625 197.257812 501.039062 197.683594 500.90625 198.160156 Z M 512.792969 177.28125 C 514.691406 176.742188 516.597656 176.238281 518.488281 175.6875 C 519.703125 175.359375 520.75 174.75 521.632812 173.859375 L 532.703125 172.265625 C 533.125 172.851562 533.605469 173.382812 534.148438 173.855469 C 535.464844 174.96875 536.972656 175.664062 538.671875 175.949219 C 530.042969 176.363281 521.417969 176.808594 512.792969 177.285156 Z M 524.328125 153.4375 C 524.335938 152.96875 524.367188 152.496094 524.410156 152.019531 C 526.652344 150.875 528.894531 149.714844 531.136719 148.542969 L 531.789062 148.523438 C 531.722656 149.28125 531.640625 150.039062 531.582031 150.796875 C 531.527344 151.40625 531.453125 152.058594 531.367188 152.726562 C 529.023438 152.976562 526.675781 153.191406 524.328125 153.441406 Z M 546.3125 175.617188 L 545.84375 175.636719 L 546.503906 175.507812 Z M 542.285156 150.949219 C 542.378906 150.359375 542.460938 149.820312 542.503906 149.34375 C 542.535156 149.007812 542.5625 148.675781 542.59375 148.34375 C 546.058594 148.3125 549.527344 148.308594 552.992188 148.328125 C 549.417969 149.195312 545.847656 150.058594 542.285156 150.957031 Z M 597.199219 189.4375 C 591.929688 190.246094 586.660156 191.046875 581.390625 191.84375 C 575.25 191.816406 569.109375 191.691406 562.972656 191.46875 C 568.75 190.1875 574.515625 188.886719 580.28125 187.566406 L 582.894531 187.257812 C 583.214844 187.480469 583.558594 187.660156 583.925781 187.796875 C 584.210938 188.160156 584.503906 188.515625 584.78125 188.886719 C 587.523438 192.554688 592.402344 189.769531 592.933594 186.070312 L 595.613281 185.753906 C 596.917969 185.621094 597.992188 185.054688 598.835938 184.046875 C 598.984375 185.75 599.121094 187.457031 599.300781 189.160156 C 598.574219 189.25 597.871094 189.339844 597.195312 189.441406 Z M 600.207031 128.617188 C 600.140625 129.109375 600.097656 129.601562 600.035156 130.089844 C 599.542969 129.644531 598.984375 129.3125 598.355469 129.101562 C 597.726562 128.890625 597.082031 128.8125 596.421875 128.871094 L 579.785156 130.050781 C 587.035156 128.644531 594.277344 127.199219 601.515625 125.714844 C 600.769531 126.546875 600.332031 127.519531 600.203125 128.628906 Z M 598.238281 175.128906 C 598.164062 175.058594 598.089844 174.992188 598.015625 174.925781 C 598.082031 174.839844 598.152344 174.753906 598.214844 174.664062 C 598.214844 174.832031 598.222656 174.984375 598.234375 175.140625 Z M 595.039062 155.816406 C 595.980469 155.179688 596.902344 154.511719 597.777344 153.804688 C 597.667969 155.777344 597.554688 157.746094 597.515625 159.726562 C 595.433594 163.03125 593.230469 166.226562 590.914062 169.316406 C 590.195312 169.191406 589.472656 169.183594 588.75 169.289062 C 588.023438 169.394531 587.335938 169.609375 586.679688 169.9375 C 586.027344 170.261719 585.4375 170.683594 584.917969 171.195312 C 584.394531 171.710938 583.96875 172.292969 583.632812 172.945312 L 582.738281 173.125 C 581.652344 172.28125 580.527344 171.496094 579.371094 170.753906 C 583.65625 168.28125 587.949219 165.824219 592.234375 163.34375 C 592.558594 163.175781 592.867188 162.980469 593.15625 162.753906 C 593.445312 162.527344 593.714844 162.277344 593.957031 162 C 594.199219 161.726562 594.417969 161.429688 594.605469 161.117188 C 594.792969 160.800781 594.953125 160.472656 595.082031 160.125 C 595.210938 159.78125 595.304688 159.429688 595.367188 159.066406 C 595.433594 158.707031 595.460938 158.339844 595.457031 157.972656 C 595.453125 157.605469 595.414062 157.242188 595.34375 156.882812 C 595.273438 156.519531 595.167969 156.171875 595.035156 155.828125 Z M 598.71875 125.820312 C 588.5625 127.148438 578.363281 128.207031 568.1875 129.394531 C 546.84375 131.886719 525.503906 134.355469 504.160156 136.808594 C 461.457031 141.730469 418.804688 147.074219 376.121094 152.191406 C 371.035156 152.800781 369.203125 145.015625 374.355469 144.339844 C 417.457031 138.683594 460.65625 133.703125 503.84375 128.769531 C 525.695312 126.273438 547.558594 123.914062 569.4375 121.691406 C 579.472656 120.667969 589.511719 119.550781 599.570312 118.753906 C 610.285156 117.90625 620.851562 118.097656 631.519531 117.671875 C 632.867188 117.617188 633.023438 119.792969 631.722656 120.011719 C 630.710938 120.183594 629.699219 120.367188 628.6875 120.546875 C 628.140625 122.929688 627.578125 125.3125 627.027344 127.695312 C 626.722656 125.476562 626.339844 123.261719 625.878906 121.054688 C 616.851562 122.742188 607.910156 124.632812 598.71875 125.832031 Z M 632.289062 148.535156 C 631.144531 156.113281 630.554688 167.433594 627.019531 175.878906 C 629.472656 161.78125 631.8125 147.660156 634.175781 133.546875 C 633.636719 138.566406 633.035156 143.566406 632.28125 148.546875 Z M 635.433594 119.308594 C 635.210938 119.066406 634.960938 118.855469 634.679688 118.679688 L 635.480469 118.503906 C 635.457031 118.785156 635.445312 119.054688 635.429688 119.320312 Z M 617.128906 103.257812 C 616.699219 102.949219 616.234375 102.699219 615.738281 102.507812 C 612.902344 101.488281 610.023438 100.625 607.09375 99.921875 C 618.417969 99.082031 629.742188 98.285156 641.074219 97.535156 C 633.253906 100.128906 625.269531 102.042969 617.121094 103.273438 Z M 653.167969 96.726562 C 653.800781 96.6875 654.433594 96.640625 655.066406 96.597656 C 654.945312 97.414062 654.824219 98.230469 654.699219 99.042969 C 654.429688 98.113281 653.917969 97.34375 653.160156 96.742188 Z M 649.863281 197.746094 C 650.011719 197.359375 650.195312 196.996094 650.324219 196.578125 C 650.46875 196.070312 650.589844 195.546875 650.734375 195.03125 C 650.695312 195.886719 650.65625 196.746094 650.617188 197.605469 Z M 601.183594 458.652344 C 601.210938 458.894531 601.253906 459.128906 601.316406 459.359375 C 597.011719 459.066406 592.710938 458.949219 588.425781 459.039062 C 592.65625 458.765625 596.90625 458.625 601.183594 458.652344 Z M 527.835938 473.453125 C 521.484375 476.472656 515.375 479.914062 509.503906 483.785156 C 507.980469 484.417969 506.46875 485.070312 504.957031 485.738281 C 503.859375 485.578125 502.8125 485.746094 501.816406 486.234375 C 500.839844 486.6875 499.859375 487.160156 498.878906 487.625 C 508.226562 482.277344 517.878906 477.554688 527.835938 473.453125 Z M 474.042969 516.398438 C 473.371094 517.261719 472.695312 518.117188 472.039062 518.992188 C 471.671875 519.433594 471.390625 519.925781 471.1875 520.460938 C 470.988281 520.996094 470.878906 521.550781 470.867188 522.125 C 470.851562 522.699219 470.929688 523.257812 471.105469 523.804688 C 471.277344 524.351562 471.535156 524.855469 471.878906 525.3125 C 470.144531 527.257812 468.417969 529.214844 466.710938 531.1875 L 466.65625 531.046875 C 466.5 530.597656 466.273438 530.183594 465.980469 529.804688 C 465.683594 529.425781 465.339844 529.105469 464.941406 528.84375 C 464.542969 528.578125 464.113281 528.382812 463.648438 528.257812 C 463.1875 528.132812 462.71875 528.085938 462.242188 528.117188 C 465.898438 523.933594 469.832031 520.027344 474.042969 516.398438 Z M 457.394531 621.410156 C 456.742188 620.984375 456.089844 620.570312 455.457031 620.109375 C 453.335938 618.558594 451.339844 616.863281 449.46875 615.015625 C 449.570312 614.898438 449.660156 614.773438 449.746094 614.644531 C 449.757812 614.617188 449.769531 614.589844 449.78125 614.5625 C 452.394531 616.113281 455.164062 617.304688 458.082031 618.140625 C 457.59375 619.175781 457.363281 620.265625 457.394531 621.410156 Z M 461.558594 577.894531 C 459.777344 580.785156 458.078125 583.734375 456.4375 586.730469 C 455.445312 582.507812 454.164062 578.371094 452.597656 574.324219 C 452.636719 570.335938 453.074219 566.390625 453.914062 562.492188 C 456.828125 559.207031 459.699219 555.882812 462.523438 552.515625 C 463.671875 555.894531 464.789062 559.285156 465.871094 562.6875 C 463.519531 567.496094 462.082031 572.566406 461.558594 577.894531 Z M 472.308594 597.464844 C 472.230469 597.4375 472.175781 597.402344 472.101562 597.375 C 472.558594 597.40625 473.007812 597.421875 473.460938 597.445312 C 473.472656 597.539062 473.460938 597.644531 473.480469 597.738281 C 473.078125 597.691406 472.6875 597.597656 472.304688 597.464844 Z M 484.425781 617.375 C 484.457031 617.335938 484.484375 617.285156 484.511719 617.242188 C 489.777344 616.914062 494.988281 616.21875 500.15625 615.152344 C 500.183594 615.332031 500.214844 615.511719 500.261719 615.683594 C 495.035156 616.730469 489.757812 617.292969 484.425781 617.375 Z M 486.667969 587.277344 C 487.171875 585.511719 487.761719 583.773438 488.367188 582.101562 C 488.003906 583.773438 487.691406 585.46875 487.410156 587.179688 C 487.160156 587.214844 486.914062 587.246094 486.664062 587.277344 Z M 506.90625 541.234375 C 507.054688 540.9375 507.222656 540.65625 507.378906 540.367188 C 507.484375 540.277344 507.59375 540.191406 507.699219 540.101562 C 507.425781 540.472656 507.171875 540.859375 506.90625 541.234375 Z M 507.96875 562.050781 L 508.101562 561.933594 C 509.890625 560.378906 511.703125 558.855469 513.511719 557.324219 C 513.539062 557.503906 513.546875 557.683594 513.578125 557.855469 C 511.457031 560.324219 509.316406 562.777344 507.160156 565.21875 C 506.71875 565.714844 506.277344 566.199219 505.835938 566.691406 C 506.511719 565.125 507.21875 563.578125 507.957031 562.050781 Z M 508.410156 574.304688 C 511.09375 571.035156 513.808594 567.792969 516.558594 564.570312 C 513.78125 569.851562 510.960938 575.117188 508.058594 580.316406 L 507.378906 581.53125 C 505.347656 582.414062 503.28125 583.214844 501.183594 583.925781 C 503.722656 580.507812 506.097656 577.113281 508.402344 574.304688 Z M 509.972656 603.492188 C 509.386719 602.988281 508.710938 602.65625 507.957031 602.492188 C 507.199219 602.328125 506.449219 602.355469 505.703125 602.570312 C 506.328125 602.0625 506.933594 601.523438 507.523438 600.964844 C 508.167969 602.027344 509.050781 602.820312 510.175781 603.351562 Z M 518.910156 624.726562 C 516.011719 625.304688 513.054688 625.835938 510.0625 626.316406 C 515.144531 625.007812 520.148438 623.433594 525.066406 621.597656 C 525.550781 622.15625 526.125 622.59375 526.792969 622.914062 C 524.179688 623.585938 521.554688 624.199219 518.90625 624.726562 Z M 520.347656 609.800781 C 522.09375 608.882812 523.910156 608.132812 525.792969 607.550781 C 525.785156 607.574219 525.78125 607.597656 525.773438 607.621094 C 523.96875 608.378906 522.160156 609.105469 520.34375 609.800781 Z M 529.832031 593.410156 C 529.175781 594.320312 528.890625 595.335938 528.984375 596.457031 C 527.429688 596.683594 525.90625 596.972656 524.410156 597.320312 C 526.285156 595.933594 528.175781 594.574219 530.019531 593.152344 C 529.953125 593.238281 529.894531 593.324219 529.828125 593.410156 Z M 531.777344 561.421875 C 531.453125 561.117188 531.128906 560.816406 530.804688 560.507812 C 531.546875 559.035156 532.289062 557.558594 533.023438 556.078125 L 535.675781 555.996094 C 534.351562 557.789062 533.050781 559.597656 531.773438 561.421875 Z M 539.972656 601.007812 C 539.96875 600.691406 539.9375 600.378906 539.882812 600.066406 C 543.042969 598.898438 546.136719 597.601562 549.171875 596.179688 C 546.140625 597.816406 543.070312 599.4375 539.96875 601.007812 Z M 539.882812 542.664062 C 542.589844 540.585938 545.402344 538.660156 548.316406 536.882812 C 549.960938 535.886719 551.636719 534.96875 553.328125 534.070312 C 550.398438 537.394531 547.539062 540.78125 544.75 544.230469 C 543.167969 543.582031 541.542969 543.0625 539.878906 542.664062 Z M 560.878906 569.222656 C 559.761719 572.59375 558.707031 575.996094 557.765625 579.429688 C 555.292969 581 552.753906 582.480469 550.144531 583.871094 Z M 550.433594 613.574219 C 553.394531 611.945312 556.320312 610.265625 559.207031 608.53125 C 559.746094 608.632812 560.277344 608.71875 560.804688 608.78125 C 557.355469 610.40625 553.898438 612.003906 550.433594 613.574219 Z M 567.308594 514.695312 C 567.109375 514.753906 566.914062 514.820312 566.71875 514.882812 L 567.488281 514.273438 C 567.425781 514.414062 567.367188 514.554688 567.308594 514.695312 Z M 573.476562 499.4375 L 573.460938 499.449219 L 573.484375 499.421875 Z M 577.050781 557.578125 C 578.0625 555.175781 579.113281 552.789062 580.199219 550.417969 C 581.84375 549.316406 583.578125 548.386719 585.40625 547.632812 C 582.621094 550.949219 579.835938 554.265625 577.050781 557.578125 Z M 599.203125 564.5 C 596.824219 566.789062 594.398438 569.027344 591.9375 571.207031 C 594.402344 568.09375 596.710938 564.835938 598.902344 561.476562 C 599.4375 562.242188 600.097656 562.878906 600.878906 563.394531 C 600.25 563.65625 599.691406 564.023438 599.203125 564.496094 Z M 597.628906 496.523438 C 597.394531 496.425781 597.15625 496.347656 596.910156 496.28125 C 597.730469 495.425781 598.558594 494.574219 599.402344 493.742188 C 598.808594 494.664062 598.222656 495.59375 597.628906 496.519531 Z M 597.660156 526.25 L 597.585938 526.429688 L 597.503906 526.449219 Z M 603.023438 512.96875 C 602.671875 512.335938 602.230469 511.769531 601.699219 511.277344 C 603.117188 509.007812 604.550781 506.746094 606 504.496094 C 605.117188 507.328125 604.109375 510.148438 603.023438 512.964844 Z M 609.355469 502.511719 C 608.789062 502.085938 608.167969 501.976562 607.492188 502.183594 C 608.351562 500.859375 609.210938 499.539062 610.078125 498.21875 C 609.859375 499.65625 609.617188 501.085938 609.351562 502.511719 Z M 613.421875 481.769531 C 587.730469 489.871094 561.664062 496.371094 536.515625 506.15625 C 524.675781 510.761719 512.855469 515.964844 502.640625 523.621094 C 497.644531 527.285156 492.859375 531.214844 488.292969 535.402344 C 483.769531 539.636719 480.023438 544.695312 475.386719 548.753906 C 475.007812 549.085938 474.582031 549.347656 474.113281 549.535156 C 473.933594 549.769531 473.734375 549.996094 473.554688 550.234375 C 473.5 550.070312 473.441406 549.910156 473.386719 549.746094 C 472.589844 549.863281 471.824219 549.757812 471.085938 549.433594 C 470.347656 549.105469 469.757812 548.609375 469.308594 547.9375 C 468.859375 547.269531 468.621094 546.53125 468.597656 545.726562 C 468.574219 544.921875 468.765625 544.171875 469.175781 543.476562 C 473.179688 536.648438 479.71875 530.328125 486.511719 525.003906 C 486.609375 524.902344 486.703125 524.800781 486.800781 524.699219 L 487.054688 524.585938 C 490.03125 522.277344 493.046875 520.167969 495.910156 518.28125 C 507.265625 510.972656 519.25 504.902344 531.859375 500.066406 C 557.488281 490.011719 585.597656 482.53125 613.003906 479.902344 C 613.261719 479.84375 613.5 479.886719 613.726562 480.03125 C 613.949219 480.171875 614.089844 480.371094 614.148438 480.628906 C 614.203125 480.886719 614.160156 481.128906 614.019531 481.351562 C 613.878906 481.578125 613.675781 481.714844 613.417969 481.773438 Z M 622.304688 500.9375 C 621.910156 501.5 621.523438 502.070312 621.136719 502.648438 C 621.226562 502.132812 621.296875 501.617188 621.378906 501.105469 C 623.289062 495.0625 623.9375 488.886719 623.324219 482.582031 C 623.449219 482.25 623.546875 481.910156 623.683594 481.582031 C 623.746094 481.902344 623.882812 482.191406 624.09375 482.445312 C 624.304688 482.699219 624.5625 482.886719 624.867188 483.007812 C 624.234375 489.023438 623.378906 495 622.296875 500.933594 Z M 622.304688 500.9375 " fill-opacity="1" fill-rule="nonzero"/></g></svg>