<svg xmlns="http://www.w3.org/2000/svg" xmlns:xlink="http://www.w3.org/1999/xlink" width="180" zoomAndPan="magnify" viewBox="0 0 135 30.000001" height="40" preserveAspectRatio="xMidYMid meet" version="1.0"><defs><g/><clipPath id="85627bd380"><path d="M 2.175781 0 L 132.820312 0 L 132.820312 29.03125 L 2.175781 29.03125 Z M 2.175781 0 " clip-rule="nonzero"/></clipPath><clipPath id="a851e42677"><path d="M 131.109375 29.03125 L 3.890625 29.03125 C 2.945312 29.03125 2.175781 28.261719 2.175781 27.320312 L 2.175781 1.714844 C 2.175781 0.769531 2.945312 0 3.890625 0 L 131.109375 0 C 132.054688 0 132.824219 0.769531 132.824219 1.714844 L 132.824219 27.320312 C 132.824219 28.261719 132.054688 29.03125 131.109375 29.03125 Z M 131.109375 29.03125 " clip-rule="nonzero"/></clipPath><clipPath id="c9e86f4cb2"><path d="M 4 8.28125 L 16.234375 8.28125 L 16.234375 21.347656 L 4 21.347656 Z M 4 8.28125 " clip-rule="nonzero"/></clipPath></defs><g clip-path="url(#85627bd380)"><g clip-path="url(#a851e42677)"><path fill="#90887a" d="M 2.175781 0 L 132.824219 0 L 132.824219 29.03125 L 2.175781 29.03125 Z M 2.175781 0 " fill-opacity="1" fill-rule="nonzero"/></g></g><g clip-path="url(#c9e86f4cb2)"><path fill="#fff5e6" d="M 16.085938 12.128906 C 16.140625 10.898438 16.179688 9.671875 16.230469 8.441406 C 16.234375 8.402344 16.222656 8.367188 16.191406 8.339844 C 16.167969 8.304688 16.136719 8.285156 16.097656 8.28125 C 13.835938 8.421875 11.570312 8.621094 9.328125 8.976562 C 9.265625 8.894531 9.097656 8.914062 9.09375 9.050781 C 8.988281 11.132812 8.90625 13.214844 8.796875 15.292969 C 8.765625 15.835938 8.738281 16.378906 8.699219 16.921875 C 8.683594 16.929688 8.667969 16.941406 8.65625 16.957031 C 8.609375 16.9375 8.5625 16.941406 8.515625 16.96875 C 8.511719 16.96875 8.503906 16.964844 8.5 16.964844 C 8.492188 16.960938 8.484375 16.957031 8.476562 16.953125 C 8.449219 16.945312 8.421875 16.945312 8.394531 16.949219 C 8.324219 16.941406 8.253906 16.941406 8.183594 16.941406 C 7.339844 16.734375 6.375 17.097656 5.648438 17.496094 C 5.207031 17.738281 4.824219 18.066406 4.546875 18.464844 C 4.375 18.640625 4.238281 18.839844 4.144531 19.0625 C 3.894531 19.660156 3.957031 20.648438 4.582031 20.988281 C 5.230469 21.347656 6.117188 21.199219 6.796875 21.007812 C 7.496094 20.808594 8.078125 20.40625 8.441406 19.761719 C 8.527344 19.601562 8.605469 19.433594 8.664062 19.261719 C 8.742188 19.082031 8.796875 18.894531 8.828125 18.699219 C 8.953125 17.910156 8.988281 17.097656 9.035156 16.296875 C 9.105469 15.117188 9.160156 13.933594 9.210938 12.75 C 9.226562 12.40625 9.242188 12.066406 9.253906 11.726562 C 10.828125 11.53125 12.40625 11.335938 13.980469 11.140625 L 15.128906 10.996094 C 15.273438 10.976562 15.476562 10.984375 15.628906 10.929688 C 15.636719 10.933594 15.644531 10.933594 15.652344 10.9375 C 15.71875 10.949219 15.785156 10.945312 15.847656 10.917969 C 15.792969 12.167969 15.738281 13.421875 15.671875 14.671875 C 15.640625 15.214844 15.613281 15.757812 15.574219 16.300781 C 15.558594 16.304688 15.542969 16.316406 15.53125 16.335938 C 15.484375 16.316406 15.4375 16.320312 15.390625 16.347656 C 15.386719 16.347656 15.378906 16.34375 15.375 16.34375 C 15.367188 16.339844 15.359375 16.335938 15.351562 16.332031 C 15.324219 16.324219 15.296875 16.324219 15.269531 16.328125 C 15.199219 16.320312 15.128906 16.320312 15.058594 16.320312 C 14.214844 16.113281 13.25 16.476562 12.523438 16.875 C 12.082031 17.117188 11.699219 17.445312 11.421875 17.84375 C 11.25 18.019531 11.117188 18.21875 11.019531 18.441406 C 10.769531 19.039062 10.832031 20.027344 11.457031 20.367188 C 12.105469 20.726562 12.992188 20.578125 13.671875 20.386719 C 14.371094 20.1875 14.957031 19.785156 15.316406 19.140625 C 15.402344 18.980469 15.480469 18.8125 15.539062 18.640625 C 15.617188 18.460938 15.671875 18.273438 15.703125 18.078125 C 15.828125 17.289062 15.863281 16.476562 15.910156 15.675781 C 15.980469 14.496094 16.035156 13.3125 16.085938 12.128906 Z M 7.910156 17.070312 C 7.910156 17.074219 7.910156 17.082031 7.914062 17.085938 C 7.820312 17.078125 7.726562 17.078125 7.632812 17.078125 C 7.722656 17.070312 7.816406 17.070312 7.910156 17.070312 Z M 6.316406 17.394531 C 6.179688 17.460938 6.046875 17.535156 5.917969 17.621094 C 5.886719 17.632812 5.851562 17.648438 5.820312 17.664062 C 5.796875 17.660156 5.773438 17.664062 5.75 17.671875 C 5.730469 17.683594 5.710938 17.695312 5.6875 17.703125 C 5.890625 17.585938 6.101562 17.484375 6.316406 17.394531 Z M 5.148438 18.332031 C 5.132812 18.351562 5.121094 18.371094 5.105469 18.390625 C 5.066406 18.433594 5.066406 18.480469 5.101562 18.527344 C 5.0625 18.570312 5.027344 18.613281 4.988281 18.65625 L 4.988281 18.652344 C 4.972656 18.609375 4.941406 18.585938 4.890625 18.589844 C 4.972656 18.5 5.058594 18.414062 5.148438 18.332031 Z M 4.785156 20.632812 C 4.773438 20.621094 4.757812 20.613281 4.746094 20.601562 C 4.699219 20.570312 4.65625 20.53125 4.613281 20.492188 C 4.617188 20.488281 4.617188 20.484375 4.621094 20.484375 C 4.621094 20.484375 4.621094 20.480469 4.621094 20.480469 C 4.679688 20.515625 4.738281 20.542969 4.800781 20.558594 C 4.792969 20.582031 4.785156 20.605469 4.785156 20.632812 Z M 4.878906 19.679688 C 4.839844 19.742188 4.800781 19.808594 4.765625 19.871094 C 4.746094 19.78125 4.71875 19.691406 4.683594 19.601562 C 4.683594 19.515625 4.691406 19.425781 4.710938 19.34375 C 4.773438 19.269531 4.835938 19.199219 4.898438 19.125 C 4.921875 19.199219 4.949219 19.273438 4.972656 19.347656 C 4.921875 19.453125 4.890625 19.5625 4.878906 19.679688 Z M 5.109375 20.105469 C 5.109375 20.105469 5.109375 20.105469 5.105469 20.105469 C 5.117188 20.105469 5.125 20.105469 5.136719 20.105469 C 5.136719 20.109375 5.136719 20.109375 5.136719 20.113281 C 5.128906 20.113281 5.117188 20.109375 5.109375 20.105469 Z M 5.375 20.542969 C 5.375 20.542969 5.375 20.542969 5.375 20.539062 C 5.488281 20.53125 5.601562 20.519531 5.714844 20.496094 C 5.714844 20.5 5.71875 20.503906 5.71875 20.507812 C 5.605469 20.527344 5.488281 20.542969 5.375 20.542969 Z M 5.421875 19.882812 C 5.433594 19.847656 5.445312 19.808594 5.460938 19.769531 C 5.453125 19.808594 5.445312 19.84375 5.4375 19.882812 Z M 5.863281 18.875 C 5.867188 18.871094 5.867188 18.863281 5.871094 18.859375 C 5.875 18.855469 5.878906 18.855469 5.878906 18.851562 C 5.875 18.859375 5.867188 18.867188 5.863281 18.875 Z M 5.886719 19.332031 L 5.886719 19.328125 C 5.925781 19.296875 5.964844 19.261719 6.003906 19.230469 C 6.007812 19.234375 6.007812 19.238281 6.007812 19.242188 C 5.960938 19.292969 5.914062 19.347656 5.867188 19.402344 C 5.859375 19.414062 5.847656 19.421875 5.839844 19.433594 C 5.855469 19.398438 5.867188 19.367188 5.886719 19.332031 Z M 5.894531 19.601562 C 5.953125 19.527344 6.011719 19.457031 6.070312 19.386719 C 6.011719 19.503906 5.949219 19.617188 5.886719 19.730469 L 5.871094 19.757812 C 5.828125 19.777344 5.785156 19.796875 5.738281 19.8125 C 5.792969 19.738281 5.84375 19.660156 5.894531 19.601562 Z M 5.929688 20.238281 C 5.902344 20.214844 5.871094 20.210938 5.835938 20.21875 C 5.851562 20.207031 5.863281 20.195312 5.875 20.183594 C 5.890625 20.207031 5.910156 20.222656 5.933594 20.234375 Z M 6.121094 20.703125 C 6.058594 20.714844 5.996094 20.726562 5.929688 20.738281 C 6.042969 20.710938 6.148438 20.675781 6.257812 20.636719 C 6.265625 20.648438 6.28125 20.65625 6.292969 20.664062 C 6.238281 20.679688 6.179688 20.691406 6.121094 20.703125 Z M 6.152344 20.378906 C 6.191406 20.355469 6.230469 20.339844 6.273438 20.328125 C 6.234375 20.347656 6.195312 20.363281 6.152344 20.378906 Z M 6.359375 20.019531 C 6.34375 20.039062 6.339844 20.0625 6.339844 20.085938 C 6.308594 20.089844 6.273438 20.097656 6.242188 20.105469 C 6.28125 20.074219 6.324219 20.042969 6.363281 20.011719 Z M 6.402344 19.320312 C 6.394531 19.3125 6.386719 19.304688 6.382812 19.296875 C 6.398438 19.265625 6.414062 19.234375 6.429688 19.203125 L 6.488281 19.199219 C 6.457031 19.238281 6.429688 19.277344 6.402344 19.320312 Z M 6.582031 20.183594 C 6.578125 20.179688 6.578125 20.171875 6.578125 20.164062 C 6.648438 20.140625 6.714844 20.109375 6.78125 20.078125 C 6.714844 20.113281 6.648438 20.152344 6.582031 20.183594 Z M 6.578125 18.90625 C 6.636719 18.863281 6.699219 18.820312 6.761719 18.78125 C 6.796875 18.761719 6.832031 18.738281 6.871094 18.71875 C 6.804688 18.792969 6.746094 18.867188 6.683594 18.941406 C 6.648438 18.929688 6.613281 18.917969 6.578125 18.90625 Z M 7.035156 19.488281 C 7.011719 19.5625 6.988281 19.636719 6.964844 19.710938 C 6.914062 19.746094 6.859375 19.78125 6.800781 19.808594 Z M 6.808594 20.460938 C 6.871094 20.425781 6.933594 20.386719 6.996094 20.347656 C 7.007812 20.351562 7.019531 20.355469 7.03125 20.355469 C 6.957031 20.390625 6.882812 20.425781 6.808594 20.460938 Z M 7.171875 18.296875 C 7.167969 18.296875 7.164062 18.300781 7.160156 18.300781 L 7.175781 18.285156 C 7.175781 18.289062 7.175781 18.292969 7.171875 18.296875 Z M 7.308594 17.960938 Z M 7.386719 19.234375 C 7.40625 19.183594 7.429688 19.128906 7.453125 19.078125 C 7.488281 19.054688 7.527344 19.035156 7.566406 19.015625 C 7.507812 19.089844 7.445312 19.160156 7.386719 19.234375 Z M 7.867188 19.386719 C 7.816406 19.4375 7.761719 19.484375 7.707031 19.53125 C 7.761719 19.464844 7.8125 19.394531 7.859375 19.320312 C 7.871094 19.335938 7.886719 19.351562 7.902344 19.363281 C 7.890625 19.367188 7.878906 19.375 7.867188 19.386719 Z M 7.832031 17.898438 C 7.828125 17.894531 7.820312 17.894531 7.816406 17.894531 C 7.835938 17.875 7.851562 17.855469 7.871094 17.835938 C 7.859375 17.859375 7.84375 17.878906 7.832031 17.898438 Z M 7.832031 18.550781 L 7.832031 18.554688 L 7.828125 18.554688 Z M 7.949219 18.257812 C 7.941406 18.246094 7.933594 18.230469 7.921875 18.222656 C 7.953125 18.171875 7.980469 18.121094 8.015625 18.074219 C 7.996094 18.136719 7.972656 18.195312 7.949219 18.257812 Z M 8.085938 18.03125 C 8.074219 18.019531 8.0625 18.019531 8.046875 18.023438 C 8.066406 17.992188 8.082031 17.964844 8.101562 17.9375 C 8.097656 17.96875 8.09375 18 8.085938 18.03125 Z M 8.144531 17.644531 C 7.828125 17.671875 7.535156 17.777344 7.238281 17.875 C 6.988281 17.960938 6.738281 18.058594 6.5 18.167969 C 6.261719 18.269531 6.035156 18.394531 5.820312 18.542969 C 5.605469 18.695312 5.4375 18.882812 5.269531 19.082031 C 5.191406 19.171875 5.050781 19.050781 5.097656 18.953125 C 5.089844 18.9375 5.085938 18.921875 5.078125 18.90625 C 5.191406 18.773438 5.304688 18.640625 5.425781 18.515625 C 5.472656 18.492188 5.519531 18.472656 5.566406 18.453125 C 5.835938 18.246094 6.152344 18.085938 6.449219 17.960938 C 6.714844 17.851562 6.992188 17.765625 7.269531 17.675781 C 7.558594 17.585938 7.855469 17.476562 8.160156 17.566406 C 8.207031 17.578125 8.1875 17.644531 8.144531 17.644531 Z M 8.367188 17.996094 C 8.359375 18.007812 8.351562 18.019531 8.34375 18.03125 C 8.34375 18.019531 8.347656 18.011719 8.347656 18 C 8.390625 17.867188 8.402344 17.730469 8.390625 17.59375 C 8.394531 17.585938 8.394531 17.578125 8.398438 17.570312 C 8.402344 17.585938 8.410156 17.597656 8.421875 17.601562 C 8.410156 17.734375 8.390625 17.863281 8.367188 17.996094 Z M 12.425781 9.171875 L 12.328125 9.195312 C 12.3125 9.191406 12.292969 9.1875 12.277344 9.179688 C 12.328125 9.175781 12.375 9.175781 12.425781 9.171875 Z M 11.839844 9.230469 C 11.867188 9.253906 11.898438 9.273438 11.925781 9.292969 L 11.828125 9.316406 C 11.832031 9.289062 11.835938 9.257812 11.839844 9.230469 Z M 11.320312 9.207031 C 11.40625 9.203125 11.492188 9.203125 11.578125 9.199219 C 11.578125 9.214844 11.574219 9.234375 11.574219 9.25 C 11.5 9.246094 11.425781 9.246094 11.355469 9.25 C 11.316406 9.238281 11.28125 9.242188 11.246094 9.257812 C 11.175781 9.265625 11.105469 9.273438 11.035156 9.28125 C 11.011719 9.277344 10.984375 9.269531 10.960938 9.265625 C 11.082031 9.246094 11.203125 9.226562 11.320312 9.207031 Z M 10.582031 9.332031 C 10.582031 9.335938 10.578125 9.335938 10.574219 9.339844 C 10.558594 9.339844 10.542969 9.339844 10.527344 9.34375 Z M 9.324219 9.835938 C 9.328125 9.789062 9.328125 9.742188 9.332031 9.695312 C 9.335938 9.707031 9.335938 9.714844 9.339844 9.722656 C 9.335938 9.761719 9.332031 9.800781 9.324219 9.839844 Z M 9.351562 9.148438 C 9.351562 9.140625 9.355469 9.136719 9.355469 9.132812 C 9.375 9.128906 9.394531 9.128906 9.414062 9.128906 C 9.402344 9.136719 9.394531 9.144531 9.386719 9.152344 C 9.382812 9.15625 9.378906 9.160156 9.375 9.164062 C 9.371094 9.160156 9.363281 9.152344 9.351562 9.148438 Z M 9.269531 11.386719 C 9.269531 11.386719 9.265625 11.386719 9.265625 11.386719 C 9.269531 11.335938 9.269531 11.28125 9.273438 11.230469 C 9.308594 11.3125 9.449219 11.3125 9.449219 11.203125 C 9.449219 11.199219 9.453125 11.195312 9.453125 11.191406 C 9.453125 11.210938 9.453125 11.226562 9.453125 11.246094 C 9.453125 11.265625 9.457031 11.285156 9.46875 11.304688 Z M 9.546875 9.40625 C 9.546875 9.402344 9.542969 9.398438 9.542969 9.394531 C 9.542969 9.375 9.542969 9.355469 9.550781 9.335938 C 9.566406 9.347656 9.585938 9.351562 9.605469 9.351562 C 9.613281 9.351562 9.621094 9.351562 9.628906 9.351562 L 9.628906 9.355469 C 9.628906 9.363281 9.628906 9.367188 9.625 9.375 C 9.625 9.382812 9.625 9.394531 9.628906 9.402344 C 9.601562 9.394531 9.574219 9.394531 9.546875 9.40625 Z M 9.695312 9.480469 C 9.691406 9.472656 9.691406 9.464844 9.6875 9.457031 C 9.71875 9.476562 9.75 9.484375 9.785156 9.476562 L 9.835938 9.46875 C 9.84375 9.476562 9.851562 9.480469 9.863281 9.484375 C 9.875 9.488281 9.886719 9.488281 9.898438 9.492188 C 9.894531 9.5 9.890625 9.511719 9.886719 9.519531 C 9.824219 9.460938 9.761719 9.457031 9.699219 9.515625 C 9.695312 9.503906 9.695312 9.492188 9.695312 9.480469 Z M 9.710938 11.0625 C 9.710938 11.019531 9.710938 10.972656 9.714844 10.929688 C 9.738281 10.925781 9.765625 10.921875 9.792969 10.921875 C 9.820312 10.917969 9.847656 10.921875 9.875 10.925781 C 9.828125 10.980469 9.773438 11.027344 9.710938 11.0625 Z M 10.238281 10.480469 C 10.226562 10.480469 10.21875 10.480469 10.207031 10.476562 C 10.207031 10.476562 10.210938 10.472656 10.210938 10.472656 C 10.257812 10.417969 10.304688 10.363281 10.351562 10.308594 C 10.347656 10.363281 10.34375 10.417969 10.34375 10.472656 C 10.308594 10.476562 10.273438 10.480469 10.238281 10.484375 Z M 10.722656 9.796875 C 10.726562 9.796875 10.730469 9.796875 10.734375 9.796875 C 10.742188 9.824219 10.757812 9.851562 10.78125 9.875 C 10.738281 9.933594 10.695312 9.988281 10.652344 10.046875 C 10.667969 9.984375 10.6875 9.925781 10.714844 9.863281 C 10.722656 9.84375 10.726562 9.820312 10.722656 9.796875 Z M 11.070312 10.238281 L 10.78125 10.34375 C 10.730469 10.359375 10.699219 10.394531 10.6875 10.441406 L 10.65625 10.445312 C 10.714844 10.371094 10.773438 10.296875 10.828125 10.222656 C 10.855469 10.269531 10.894531 10.285156 10.945312 10.269531 L 11.074219 10.230469 Z M 12.605469 10.746094 C 12.335938 10.769531 12.0625 10.796875 11.792969 10.820312 L 12.269531 10.761719 L 12.621094 10.71875 C 12.613281 10.726562 12.609375 10.738281 12.605469 10.746094 Z M 12.863281 10.289062 C 12.90625 10.277344 12.949219 10.269531 12.988281 10.257812 C 13.015625 10.25 13.039062 10.234375 13.058594 10.214844 L 13.296875 10.179688 C 13.304688 10.195312 13.316406 10.207031 13.328125 10.214844 C 13.355469 10.242188 13.390625 10.253906 13.425781 10.261719 C 13.238281 10.269531 13.050781 10.28125 12.863281 10.292969 Z M 13.117188 9.769531 C 13.117188 9.757812 13.117188 9.75 13.117188 9.738281 C 13.167969 9.714844 13.214844 9.6875 13.261719 9.660156 L 13.277344 9.660156 C 13.277344 9.679688 13.273438 9.695312 13.273438 9.710938 C 13.273438 9.726562 13.269531 9.738281 13.269531 9.753906 C 13.21875 9.757812 13.167969 9.765625 13.117188 9.769531 Z M 13.59375 10.253906 L 13.582031 10.253906 L 13.597656 10.253906 Z M 13.503906 9.714844 C 13.507812 9.703125 13.507812 9.691406 13.511719 9.679688 C 13.511719 9.671875 13.511719 9.664062 13.511719 9.65625 C 13.585938 9.65625 13.664062 9.65625 13.738281 9.65625 C 13.660156 9.675781 13.582031 9.695312 13.503906 9.714844 Z M 14.699219 10.558594 C 14.582031 10.574219 14.46875 10.59375 14.355469 10.609375 C 14.222656 10.609375 14.089844 10.605469 13.953125 10.601562 C 14.082031 10.574219 14.207031 10.542969 14.332031 10.515625 L 14.386719 10.507812 C 14.394531 10.515625 14.402344 10.519531 14.410156 10.519531 C 14.414062 10.527344 14.421875 10.535156 14.429688 10.546875 C 14.488281 10.625 14.59375 10.5625 14.605469 10.484375 L 14.664062 10.476562 C 14.691406 10.472656 14.714844 10.460938 14.734375 10.4375 C 14.738281 10.476562 14.738281 10.511719 14.742188 10.550781 C 14.726562 10.554688 14.710938 10.554688 14.699219 10.558594 Z M 14.761719 9.226562 C 14.761719 9.238281 14.761719 9.246094 14.757812 9.257812 C 14.738281 9.238281 14.710938 9.230469 14.679688 9.230469 L 14.320312 9.257812 C 14.476562 9.226562 14.632812 9.195312 14.792969 9.164062 C 14.777344 9.179688 14.765625 9.203125 14.761719 9.226562 Z M 14.71875 10.242188 C 14.71875 10.242188 14.71875 10.242188 14.714844 10.238281 C 14.71875 10.238281 14.71875 10.234375 14.71875 10.234375 C 14.71875 10.238281 14.71875 10.242188 14.71875 10.242188 Z M 14.652344 9.820312 C 14.671875 9.808594 14.691406 9.792969 14.710938 9.777344 C 14.707031 9.820312 14.707031 9.863281 14.703125 9.90625 C 14.660156 9.980469 14.613281 10.050781 14.5625 10.117188 C 14.488281 10.105469 14.4375 10.128906 14.402344 10.195312 L 14.382812 10.199219 C 14.359375 10.179688 14.335938 10.164062 14.3125 10.148438 C 14.402344 10.09375 14.496094 10.039062 14.589844 9.984375 C 14.660156 9.949219 14.679688 9.894531 14.652344 9.820312 Z M 14.730469 9.164062 C 14.511719 9.195312 14.289062 9.21875 14.066406 9.242188 C 13.605469 9.296875 13.140625 9.351562 12.675781 9.40625 C 11.75 9.511719 10.824219 9.628906 9.898438 9.742188 C 9.785156 9.753906 9.746094 9.585938 9.859375 9.570312 C 10.792969 9.445312 11.734375 9.335938 12.671875 9.230469 C 13.144531 9.175781 13.621094 9.125 14.09375 9.074219 C 14.3125 9.050781 14.53125 9.027344 14.75 9.011719 C 14.980469 8.992188 15.210938 8.996094 15.441406 8.988281 C 15.472656 8.984375 15.476562 9.03125 15.449219 9.039062 C 15.425781 9.042969 15.402344 9.046875 15.382812 9.050781 C 15.371094 9.101562 15.359375 9.152344 15.34375 9.207031 C 15.339844 9.15625 15.332031 9.109375 15.320312 9.0625 C 15.125 9.097656 14.929688 9.140625 14.730469 9.164062 Z M 15.460938 9.660156 C 15.433594 9.828125 15.421875 10.074219 15.34375 10.261719 C 15.398438 9.953125 15.449219 9.644531 15.5 9.332031 C 15.488281 9.445312 15.476562 9.554688 15.460938 9.664062 Z M 15.527344 9.023438 C 15.523438 9.015625 15.519531 9.011719 15.511719 9.007812 L 15.527344 9.003906 C 15.527344 9.011719 15.527344 9.015625 15.527344 9.023438 Z M 15.128906 8.671875 C 15.121094 8.664062 15.109375 8.660156 15.101562 8.65625 C 15.039062 8.632812 14.976562 8.613281 14.914062 8.597656 C 15.160156 8.578125 15.40625 8.5625 15.652344 8.546875 C 15.480469 8.601562 15.308594 8.644531 15.128906 8.671875 Z M 15.914062 8.527344 C 15.925781 8.527344 15.941406 8.527344 15.953125 8.523438 C 15.953125 8.542969 15.949219 8.5625 15.945312 8.578125 C 15.941406 8.558594 15.929688 8.542969 15.914062 8.527344 Z M 15.839844 10.738281 C 15.84375 10.730469 15.847656 10.722656 15.851562 10.714844 C 15.855469 10.703125 15.855469 10.691406 15.859375 10.679688 C 15.859375 10.699219 15.859375 10.71875 15.859375 10.734375 Z M 14.785156 16.449219 C 14.785156 16.453125 14.785156 16.457031 14.789062 16.464844 C 14.695312 16.457031 14.601562 16.453125 14.507812 16.457031 C 14.597656 16.449219 14.691406 16.449219 14.785156 16.449219 Z M 13.191406 16.773438 C 13.054688 16.839844 12.921875 16.914062 12.792969 17 C 12.761719 17.011719 12.726562 17.027344 12.695312 17.042969 C 12.671875 17.039062 12.648438 17.042969 12.625 17.050781 C 12.605469 17.0625 12.585938 17.070312 12.5625 17.082031 C 12.765625 16.964844 12.976562 16.863281 13.191406 16.773438 Z M 12.023438 17.710938 C 12.007812 17.730469 11.996094 17.75 11.980469 17.769531 C 11.941406 17.8125 11.941406 17.859375 11.976562 17.90625 C 11.9375 17.949219 11.902344 17.992188 11.863281 18.035156 L 11.863281 18.03125 C 11.847656 17.988281 11.816406 17.964844 11.765625 17.96875 C 11.847656 17.878906 11.933594 17.792969 12.023438 17.710938 Z M 11.660156 20.011719 C 11.648438 20 11.632812 19.992188 11.621094 19.980469 C 11.574219 19.949219 11.53125 19.910156 11.488281 19.871094 C 11.492188 19.867188 11.492188 19.863281 11.496094 19.863281 C 11.496094 19.863281 11.496094 19.859375 11.496094 19.859375 C 11.554688 19.894531 11.613281 19.921875 11.675781 19.9375 C 11.667969 19.960938 11.660156 19.984375 11.660156 20.011719 Z M 11.753906 19.058594 C 11.714844 19.121094 11.675781 19.1875 11.640625 19.25 C 11.621094 19.160156 11.59375 19.066406 11.558594 18.980469 C 11.558594 18.890625 11.566406 18.804688 11.585938 18.722656 C 11.648438 18.648438 11.710938 18.574219 11.773438 18.503906 C 11.796875 18.578125 11.824219 18.652344 11.847656 18.726562 C 11.796875 18.832031 11.765625 18.941406 11.753906 19.058594 Z M 11.984375 19.484375 C 11.984375 19.484375 11.984375 19.484375 11.980469 19.484375 C 11.992188 19.484375 12 19.484375 12.011719 19.484375 C 12.011719 19.488281 12.011719 19.488281 12.011719 19.492188 C 12.003906 19.492188 11.992188 19.488281 11.984375 19.484375 Z M 12.25 19.921875 C 12.25 19.921875 12.25 19.917969 12.25 19.917969 C 12.363281 19.910156 12.476562 19.898438 12.589844 19.875 C 12.589844 19.878906 12.59375 19.882812 12.59375 19.886719 C 12.480469 19.90625 12.363281 19.921875 12.25 19.921875 Z M 12.296875 19.261719 C 12.308594 19.222656 12.320312 19.1875 12.335938 19.148438 C 12.328125 19.1875 12.320312 19.222656 12.3125 19.261719 C 12.308594 19.261719 12.304688 19.261719 12.296875 19.261719 Z M 12.738281 18.253906 C 12.742188 18.25 12.742188 18.242188 12.746094 18.238281 C 12.75 18.234375 12.753906 18.234375 12.753906 18.230469 C 12.75 18.238281 12.742188 18.246094 12.738281 18.253906 Z M 12.761719 18.710938 L 12.761719 18.707031 C 12.800781 18.675781 12.839844 18.640625 12.878906 18.609375 C 12.882812 18.613281 12.882812 18.617188 12.882812 18.621094 C 12.835938 18.671875 12.789062 18.726562 12.742188 18.78125 C 12.734375 18.792969 12.722656 18.800781 12.714844 18.8125 C 12.730469 18.777344 12.742188 18.746094 12.761719 18.710938 Z M 12.769531 18.980469 C 12.828125 18.90625 12.886719 18.835938 12.945312 18.765625 C 12.886719 18.882812 12.824219 18.996094 12.761719 19.109375 L 12.746094 19.136719 C 12.703125 19.15625 12.660156 19.175781 12.613281 19.191406 C 12.667969 19.113281 12.71875 19.039062 12.769531 18.980469 Z M 12.804688 19.617188 C 12.777344 19.59375 12.746094 19.585938 12.710938 19.597656 C 12.726562 19.585938 12.738281 19.574219 12.75 19.5625 C 12.765625 19.585938 12.785156 19.601562 12.808594 19.613281 Z M 12.996094 20.082031 C 12.933594 20.09375 12.871094 20.105469 12.804688 20.117188 C 12.917969 20.089844 13.023438 20.054688 13.132812 20.015625 C 13.140625 20.027344 13.15625 20.035156 13.167969 20.042969 C 13.113281 20.058594 13.054688 20.070312 12.996094 20.082031 Z M 13.027344 19.757812 C 13.066406 19.734375 13.105469 19.71875 13.148438 19.707031 C 13.109375 19.726562 13.070312 19.742188 13.027344 19.757812 Z M 13.234375 19.398438 C 13.222656 19.417969 13.214844 19.441406 13.214844 19.464844 C 13.183594 19.46875 13.148438 19.476562 13.117188 19.484375 C 13.15625 19.453125 13.199219 19.421875 13.238281 19.390625 C 13.238281 19.394531 13.238281 19.394531 13.234375 19.398438 Z M 13.277344 18.699219 C 13.269531 18.691406 13.261719 18.683594 13.257812 18.675781 C 13.273438 18.644531 13.289062 18.613281 13.304688 18.582031 L 13.363281 18.578125 C 13.332031 18.617188 13.304688 18.65625 13.277344 18.699219 Z M 13.457031 19.5625 C 13.457031 19.558594 13.453125 19.550781 13.453125 19.542969 C 13.523438 19.515625 13.589844 19.488281 13.65625 19.457031 C 13.589844 19.492188 13.523438 19.527344 13.457031 19.5625 Z M 13.453125 18.285156 C 13.511719 18.242188 13.574219 18.199219 13.636719 18.160156 C 13.671875 18.136719 13.707031 18.117188 13.746094 18.097656 C 13.683594 18.171875 13.621094 18.246094 13.558594 18.320312 C 13.523438 18.308594 13.488281 18.296875 13.453125 18.285156 Z M 13.910156 18.867188 C 13.886719 18.941406 13.863281 19.015625 13.839844 19.089844 C 13.789062 19.125 13.734375 19.15625 13.675781 19.1875 Z M 13.683594 19.839844 C 13.746094 19.804688 13.808594 19.765625 13.871094 19.726562 C 13.882812 19.730469 13.894531 19.730469 13.90625 19.734375 C 13.832031 19.769531 13.757812 19.804688 13.683594 19.839844 Z M 14.046875 17.675781 C 14.042969 17.675781 14.039062 17.675781 14.035156 17.679688 L 14.054688 17.664062 C 14.050781 17.667969 14.050781 17.671875 14.046875 17.675781 Z M 14.183594 17.339844 Z M 14.261719 18.613281 C 14.28125 18.5625 14.304688 18.507812 14.328125 18.457031 C 14.363281 18.433594 14.402344 18.414062 14.441406 18.394531 C 14.382812 18.46875 14.320312 18.539062 14.261719 18.613281 Z M 14.742188 18.765625 C 14.691406 18.816406 14.636719 18.863281 14.582031 18.910156 C 14.636719 18.84375 14.6875 18.773438 14.734375 18.699219 C 14.746094 18.714844 14.761719 18.730469 14.777344 18.742188 C 14.765625 18.746094 14.753906 18.753906 14.742188 18.765625 Z M 14.707031 17.277344 C 14.703125 17.273438 14.695312 17.273438 14.691406 17.273438 C 14.710938 17.253906 14.726562 17.234375 14.746094 17.214844 C 14.734375 17.238281 14.71875 17.257812 14.707031 17.277344 Z M 14.707031 17.925781 L 14.707031 17.929688 L 14.703125 17.933594 Z M 14.824219 17.636719 C 14.816406 17.625 14.808594 17.609375 14.796875 17.601562 C 14.828125 17.550781 14.859375 17.5 14.890625 17.453125 C 14.871094 17.511719 14.847656 17.574219 14.824219 17.636719 Z M 14.960938 17.410156 C 14.949219 17.398438 14.9375 17.394531 14.921875 17.402344 C 14.941406 17.371094 14.957031 17.34375 14.976562 17.3125 C 14.972656 17.34375 14.96875 17.378906 14.960938 17.40625 Z M 15.050781 16.953125 C 14.492188 17.132812 13.925781 17.273438 13.378906 17.488281 C 13.125 17.589844 12.867188 17.703125 12.644531 17.871094 C 12.535156 17.949219 12.433594 18.035156 12.332031 18.128906 C 12.234375 18.21875 12.152344 18.332031 12.054688 18.421875 C 12.042969 18.425781 12.035156 18.433594 12.023438 18.4375 C 12.019531 18.441406 12.015625 18.449219 12.011719 18.453125 C 12.011719 18.449219 12.011719 18.445312 12.007812 18.441406 C 11.972656 18.449219 11.941406 18.433594 11.921875 18.402344 C 11.898438 18.371094 11.898438 18.335938 11.917969 18.304688 C 12.003906 18.15625 12.148438 18.015625 12.292969 17.902344 C 12.296875 17.898438 12.296875 17.894531 12.300781 17.894531 L 12.304688 17.890625 C 12.371094 17.839844 12.4375 17.792969 12.5 17.753906 C 12.746094 17.59375 13.003906 17.460938 13.277344 17.355469 C 13.835938 17.132812 14.445312 16.972656 15.042969 16.914062 C 15.054688 16.910156 15.0625 16.914062 15.066406 16.929688 C 15.070312 16.941406 15.0625 16.953125 15.050781 16.953125 Z M 15.242188 17.375 C 15.234375 17.386719 15.226562 17.398438 15.21875 17.410156 C 15.21875 17.398438 15.222656 17.386719 15.222656 17.378906 C 15.265625 17.246094 15.277344 17.109375 15.265625 16.972656 C 15.269531 16.964844 15.269531 16.957031 15.273438 16.949219 C 15.277344 16.964844 15.285156 16.976562 15.296875 16.980469 C 15.285156 17.113281 15.265625 17.242188 15.242188 17.375 Z M 15.242188 17.375 " fill-opacity="1" fill-rule="nonzero"/></g><g fill="#fff5e6" fill-opacity="1"><g transform="translate(19.350652, 19.571876)"><g><path d="M 8.398438 -3.761719 C 8.332031 -4.582031 7.933594 -5.335938 7.285156 -5.882812 C 7.140625 -6.011719 6.992188 -6.121094 6.808594 -6.25 C 6.714844 -6.316406 6.621094 -6.398438 6.515625 -6.476562 L 6.371094 -6.597656 L 6.515625 -6.703125 C 6.582031 -6.753906 6.636719 -6.792969 6.6875 -6.835938 C 6.792969 -6.902344 6.875 -6.96875 6.941406 -7.03125 C 7.65625 -7.789062 7.800781 -8.664062 7.363281 -9.578125 C 6.875 -10.597656 6 -11.140625 4.847656 -11.140625 C 4.792969 -11.140625 4.742188 -11.140625 4.6875 -11.140625 C 3.722656 -11.097656 2.714844 -10.941406 1.695312 -10.6875 C 1.351562 -10.597656 1.019531 -10.265625 0.726562 -9.960938 L 0.609375 -9.855469 C 0.515625 -9.761719 0.476562 -9.640625 0.488281 -9.535156 C 0.503906 -9.457031 0.554688 -9.378906 0.648438 -9.3125 C 0.953125 -9.140625 0.941406 -8.902344 0.941406 -8.6875 L 0.941406 -8.636719 C 0.925781 -7.773438 0.914062 -6.902344 0.886719 -6.039062 C 0.875 -4.953125 0.859375 -3.867188 0.835938 -2.78125 C 0.835938 -2.464844 0.792969 -2.171875 0.714844 -1.894531 C 0.609375 -1.457031 0.703125 -1.113281 0.992188 -0.875 C 1.324219 -0.597656 1.667969 -0.398438 1.988281 -0.292969 C 3.589844 0.25 5.21875 0.0546875 7.007812 -0.914062 C 7.21875 -1.03125 7.445312 -1.230469 7.683594 -1.511719 C 8.210938 -2.144531 8.464844 -2.941406 8.398438 -3.761719 Z M 2.808594 -7.335938 C 2.792969 -7.722656 2.769531 -7.945312 2.753906 -8.171875 C 2.742188 -8.398438 2.714844 -8.636719 2.703125 -9.019531 L 2.6875 -9.140625 L 2.792969 -9.164062 C 3.707031 -9.496094 4.027344 -9.484375 4.488281 -9.457031 C 4.78125 -9.417969 5.058594 -9.351562 5.207031 -9.285156 C 5.378906 -9.207031 5.46875 -9.085938 5.523438 -8.953125 C 5.601562 -8.703125 5.457031 -8.4375 5.363281 -8.238281 L 5.296875 -8.160156 C 5.164062 -8.011719 4.980469 -7.800781 4.476562 -7.617188 C 4.144531 -7.484375 3.816406 -7.402344 3.46875 -7.324219 C 3.3125 -7.285156 3.152344 -7.257812 2.992188 -7.207031 L 2.820312 -7.164062 Z M 6.371094 -3.46875 C 6.316406 -3.085938 6.066406 -2.753906 5.65625 -2.554688 C 5.007812 -2.238281 4.34375 -2.078125 3.683594 -2.078125 C 3.5625 -2.078125 3.457031 -2.078125 3.335938 -2.09375 C 2.980469 -2.121094 2.820312 -2.304688 2.847656 -2.664062 C 2.859375 -2.902344 2.859375 -3.140625 2.847656 -3.378906 C 2.847656 -3.445312 2.847656 -3.496094 2.847656 -3.550781 L 2.835938 -3.695312 L 2.835938 -4 C 2.835938 -4.265625 2.835938 -4.53125 2.847656 -4.792969 C 2.847656 -4.914062 2.96875 -5.21875 3.140625 -5.230469 L 3.402344 -5.246094 C 4.25 -5.3125 5.140625 -5.378906 5.894531 -4.664062 C 6.265625 -4.316406 6.4375 -3.878906 6.371094 -3.46875 Z M 6.371094 -3.46875 "/></g></g></g><g fill="#fff5e6" fill-opacity="1"><g transform="translate(28.263366, 19.571876)"><g><path d="M 10.121094 -2.160156 C 10.078125 -2.34375 10.039062 -2.570312 9.972656 -2.78125 C 9.246094 -5.273438 7.988281 -7.523438 6.753906 -9.601562 C 6.449219 -10.121094 6.054688 -10.371094 5.601562 -10.371094 C 5.335938 -10.371094 5.058594 -10.292969 4.753906 -10.121094 C 4.382812 -9.894531 4.066406 -9.617188 3.878906 -9.335938 C 3.484375 -8.769531 3.152344 -8.132812 2.886719 -7.578125 C 2.410156 -6.582031 2.039062 -5.75 1.722656 -4.953125 C 1.230469 -3.722656 0.859375 -2.675781 0.542969 -1.683594 C 0.359375 -1.125 0.648438 -0.675781 0.992188 -0.515625 C 1.417969 -0.34375 1.828125 -0.53125 2.132812 -1.03125 C 2.277344 -1.285156 2.410156 -1.550781 2.542969 -1.816406 C 2.664062 -2.054688 2.792969 -2.316406 2.941406 -2.554688 C 3.03125 -2.726562 3.285156 -2.902344 3.46875 -2.902344 C 4.160156 -2.886719 4.847656 -2.859375 5.523438 -2.835938 C 6.027344 -2.808594 6.542969 -2.792969 7.046875 -2.769531 C 7.511719 -2.753906 7.640625 -2.488281 7.722656 -2.210938 C 7.828125 -1.816406 7.945312 -1.511719 8.09375 -1.257812 C 8.371094 -0.78125 8.875 -0.582031 9.363281 -0.726562 C 9.867188 -0.886719 10.160156 -1.351562 10.160156 -2 C 10.144531 -2.054688 10.132812 -2.105469 10.121094 -2.160156 Z M 4.25 -5.140625 L 5.3125 -8.039062 L 6.730469 -5.140625 Z M 4.25 -5.140625 "/></g></g></g><g fill="#fff5e6" fill-opacity="1"><g transform="translate(38.924197, 19.571876)"><g><path d="M 9.921875 -9.46875 C 9.816406 -9.972656 9.457031 -10.332031 8.992188 -10.382812 C 8.488281 -10.449219 8.039062 -10.171875 7.855469 -9.707031 C 7.707031 -9.335938 7.617188 -8.941406 7.601562 -8.570312 C 7.550781 -7.550781 7.523438 -6.515625 7.496094 -5.511719 C 7.484375 -5.097656 7.46875 -4.6875 7.457031 -4.277344 C 7.457031 -4.171875 7.445312 -4.066406 7.445312 -3.960938 L 7.429688 -3.722656 L 7.085938 -3.589844 L 6.4375 -4.4375 C 6 -4.992188 5.578125 -5.535156 5.152344 -6.09375 C 4.914062 -6.410156 4.675781 -6.742188 4.425781 -7.058594 C 4 -7.628906 3.5625 -8.210938 3.113281 -8.769531 C 2.925781 -9.019531 2.675781 -9.230469 2.398438 -9.390625 C 2.210938 -9.496094 2 -9.5625 1.800781 -9.5625 C 1.683594 -9.5625 1.5625 -9.535156 1.445312 -9.496094 C 1.125 -9.390625 0.875 -9.140625 0.726562 -8.792969 C 0.648438 -8.582031 0.597656 -8.382812 0.582031 -8.199219 C 0.398438 -6.066406 0.464844 -3.789062 0.792969 -1.03125 C 0.820312 -0.835938 0.902344 -0.609375 1.03125 -0.398438 C 1.179688 -0.160156 1.402344 -0.0273438 1.617188 -0.0390625 C 1.839844 -0.0546875 2.039062 -0.210938 2.171875 -0.464844 C 2.265625 -0.664062 2.332031 -0.886719 2.332031 -1.074219 C 2.382812 -2.183594 2.425781 -3.3125 2.464844 -4.398438 L 2.488281 -5.273438 C 2.503906 -5.363281 2.488281 -5.46875 2.488281 -5.5625 L 2.488281 -6 L 2.726562 -5.828125 C 2.914062 -5.683594 3.03125 -5.523438 3.125 -5.378906 L 3.191406 -5.296875 C 3.378906 -5.03125 3.5625 -4.753906 3.761719 -4.488281 C 4.210938 -3.839844 4.6875 -3.164062 5.207031 -2.570312 C 5.640625 -2.054688 6.316406 -1.324219 7.113281 -0.875 C 7.882812 -0.4375 8.542969 -0.34375 9.035156 -0.609375 C 9.523438 -0.886719 9.800781 -1.523438 9.839844 -2.425781 C 9.90625 -4.132812 9.933594 -5.867188 9.972656 -7.550781 L 9.988281 -8.636719 C 10 -8.925781 9.972656 -9.207031 9.921875 -9.46875 Z M 9.921875 -9.46875 "/></g></g></g><g fill="#fff5e6" fill-opacity="1"><g transform="translate(49.426103, 19.571876)"><g><path d="M 7.246094 -8.714844 C 6.332031 -9.601562 5.085938 -10.054688 3.75 -10.011719 L 3.628906 -10 L 3.601562 -10.078125 C 3.457031 -10.054688 3.324219 -10.027344 3.179688 -10 C 2.769531 -9.90625 2.34375 -9.816406 1.945312 -9.695312 C 1.207031 -9.457031 1.074219 -9.257812 1.046875 -8.449219 C 1.03125 -7.695312 1.019531 -6.925781 1.019531 -6.160156 C 0.992188 -5.046875 0.980469 -3.933594 0.953125 -2.808594 C 0.953125 -2.53125 0.847656 -2.210938 0.6875 -1.945312 C 0.503906 -1.628906 0.4375 -1.285156 0.515625 -0.980469 C 0.582031 -0.726562 0.742188 -0.515625 0.980469 -0.382812 C 1.351562 -0.171875 1.800781 -0.0546875 2.183594 -0.078125 C 3.90625 -0.160156 5.523438 -0.726562 6.96875 -1.800781 C 8.105469 -2.636719 8.6875 -3.773438 8.6875 -5.21875 C 8.6875 -6.554688 8.160156 -7.828125 7.246094 -8.714844 Z M 5.3125 -3.828125 C 4.902344 -3.578125 4.476562 -3.363281 4.011719 -3.140625 C 3.800781 -3.03125 3.578125 -2.925781 3.351562 -2.808594 L 3.152344 -2.714844 L 2.914062 -8.039062 L 3.085938 -8.011719 C 3.207031 -8 3.335938 -7.988281 3.457031 -7.972656 C 4.066406 -7.894531 4.6875 -7.828125 5.246094 -7.484375 C 5.882812 -7.097656 6.265625 -6.410156 6.277344 -5.640625 C 6.277344 -4.886719 5.921875 -4.210938 5.3125 -3.828125 Z M 5.3125 -3.828125 "/></g></g></g><g fill="#fff5e6" fill-opacity="1"><g transform="translate(58.616926, 19.571876)"><g><path d="M 12.277344 -2.820312 C 12.210938 -3.90625 12.09375 -5.019531 11.988281 -6.09375 L 11.90625 -6.902344 C 11.761719 -8.238281 11.511719 -9.285156 11.097656 -10.210938 C 10.859375 -10.703125 10.503906 -11.035156 10.078125 -11.113281 C 9.65625 -11.207031 9.207031 -11.046875 8.792969 -10.675781 C 8.570312 -10.464844 8.371094 -10.210938 8.210938 -9.972656 C 7.90625 -9.457031 7.640625 -8.953125 7.429688 -8.464844 C 7.230469 -8.039062 7.058594 -7.589844 6.875 -7.125 C 6.792969 -6.914062 6.714844 -6.703125 6.621094 -6.488281 L 6.515625 -6.199219 L 6.371094 -6.476562 C 6.238281 -6.703125 6.132812 -6.914062 6.011719 -7.140625 C 5.761719 -7.628906 5.523438 -8.09375 5.246094 -8.53125 C 4.769531 -9.246094 4.382812 -9.734375 3.960938 -10.121094 C 3.707031 -10.34375 3.417969 -10.464844 3.140625 -10.464844 C 3.085938 -10.464844 3.019531 -10.449219 2.96875 -10.449219 C 2.621094 -10.382812 2.304688 -10.144531 2.105469 -9.773438 C 1.867188 -9.335938 1.695312 -8.859375 1.601562 -8.410156 C 1.21875 -6.382812 0.859375 -4.382812 0.542969 -2.4375 C 0.464844 -2 0.464844 -1.496094 0.542969 -0.953125 C 0.609375 -0.410156 1.03125 -0.0117188 1.5625 0 C 2.078125 0.0273438 2.503906 -0.316406 2.664062 -0.859375 C 2.742188 -1.152344 2.769531 -1.46875 2.808594 -1.773438 C 2.902344 -2.714844 2.992188 -3.640625 3.097656 -4.570312 C 3.164062 -5.246094 3.230469 -5.90625 3.296875 -6.570312 C 3.3125 -6.753906 3.351562 -6.941406 3.378906 -7.113281 L 3.445312 -7.628906 L 3.640625 -7.457031 C 3.816406 -7.3125 3.894531 -7.164062 3.945312 -7.03125 C 4.066406 -6.769531 4.183594 -6.488281 4.304688 -6.210938 C 4.53125 -5.683594 4.753906 -5.125 5.007812 -4.582031 C 5.230469 -4.105469 5.457031 -3.601562 5.761719 -3.179688 C 6.027344 -2.808594 6.398438 -2.609375 6.792969 -2.621094 C 7.191406 -2.648438 7.5625 -2.886719 7.800781 -3.296875 C 7.988281 -3.601562 8.105469 -3.960938 8.238281 -4.304688 L 8.25 -4.34375 C 8.464844 -4.941406 8.675781 -5.535156 8.886719 -6.144531 C 9.007812 -6.488281 9.125 -6.835938 9.246094 -7.179688 C 9.285156 -7.273438 9.324219 -7.363281 9.363281 -7.445312 L 9.535156 -7.839844 L 9.667969 -7.550781 C 9.761719 -7.363281 9.773438 -7.191406 9.773438 -7.03125 C 9.773438 -6.742188 9.773438 -6.449219 9.773438 -6.171875 C 9.761719 -5.5625 9.75 -4.941406 9.789062 -4.332031 C 9.867188 -3.164062 9.988281 -2.210938 10.160156 -1.324219 C 10.277344 -0.753906 10.753906 -0.503906 11.164062 -0.515625 C 11.640625 -0.53125 12.027344 -0.859375 12.144531 -1.378906 C 12.265625 -1.867188 12.316406 -2.371094 12.277344 -2.820312 Z M 12.277344 -2.820312 "/></g></g></g><g fill="#fff5e6" fill-opacity="1"><g transform="translate(71.423164, 19.571876)"><g><path d="M 10.121094 -2.160156 C 10.078125 -2.34375 10.039062 -2.570312 9.972656 -2.78125 C 9.246094 -5.273438 7.988281 -7.523438 6.753906 -9.601562 C 6.449219 -10.121094 6.054688 -10.371094 5.601562 -10.371094 C 5.335938 -10.371094 5.058594 -10.292969 4.753906 -10.121094 C 4.382812 -9.894531 4.066406 -9.617188 3.878906 -9.335938 C 3.484375 -8.769531 3.152344 -8.132812 2.886719 -7.578125 C 2.410156 -6.582031 2.039062 -5.75 1.722656 -4.953125 C 1.230469 -3.722656 0.859375 -2.675781 0.542969 -1.683594 C 0.359375 -1.125 0.648438 -0.675781 0.992188 -0.515625 C 1.417969 -0.34375 1.828125 -0.53125 2.132812 -1.03125 C 2.277344 -1.285156 2.410156 -1.550781 2.542969 -1.816406 C 2.664062 -2.054688 2.792969 -2.316406 2.941406 -2.554688 C 3.03125 -2.726562 3.285156 -2.902344 3.46875 -2.902344 C 4.160156 -2.886719 4.847656 -2.859375 5.523438 -2.835938 C 6.027344 -2.808594 6.542969 -2.792969 7.046875 -2.769531 C 7.511719 -2.753906 7.640625 -2.488281 7.722656 -2.210938 C 7.828125 -1.816406 7.945312 -1.511719 8.09375 -1.257812 C 8.371094 -0.78125 8.875 -0.582031 9.363281 -0.726562 C 9.867188 -0.886719 10.160156 -1.351562 10.160156 -2 C 10.144531 -2.054688 10.132812 -2.105469 10.121094 -2.160156 Z M 4.25 -5.140625 L 5.3125 -8.039062 L 6.730469 -5.140625 Z M 4.25 -5.140625 "/></g></g></g><g fill="#fff5e6" fill-opacity="1"><g transform="translate(82.083995, 19.571876)"><g><path d="M 9.921875 -9.46875 C 9.816406 -9.972656 9.457031 -10.332031 8.992188 -10.382812 C 8.488281 -10.449219 8.039062 -10.171875 7.855469 -9.707031 C 7.707031 -9.335938 7.617188 -8.941406 7.601562 -8.570312 C 7.550781 -7.550781 7.523438 -6.515625 7.496094 -5.511719 C 7.484375 -5.097656 7.46875 -4.6875 7.457031 -4.277344 C 7.457031 -4.171875 7.445312 -4.066406 7.445312 -3.960938 L 7.429688 -3.722656 L 7.085938 -3.589844 L 6.4375 -4.4375 C 6 -4.992188 5.578125 -5.535156 5.152344 -6.09375 C 4.914062 -6.410156 4.675781 -6.742188 4.425781 -7.058594 C 4 -7.628906 3.5625 -8.210938 3.113281 -8.769531 C 2.925781 -9.019531 2.675781 -9.230469 2.398438 -9.390625 C 2.210938 -9.496094 2 -9.5625 1.800781 -9.5625 C 1.683594 -9.5625 1.5625 -9.535156 1.445312 -9.496094 C 1.125 -9.390625 0.875 -9.140625 0.726562 -8.792969 C 0.648438 -8.582031 0.597656 -8.382812 0.582031 -8.199219 C 0.398438 -6.066406 0.464844 -3.789062 0.792969 -1.03125 C 0.820312 -0.835938 0.902344 -0.609375 1.03125 -0.398438 C 1.179688 -0.160156 1.402344 -0.0273438 1.617188 -0.0390625 C 1.839844 -0.0546875 2.039062 -0.210938 2.171875 -0.464844 C 2.265625 -0.664062 2.332031 -0.886719 2.332031 -1.074219 C 2.382812 -2.183594 2.425781 -3.3125 2.464844 -4.398438 L 2.488281 -5.273438 C 2.503906 -5.363281 2.488281 -5.46875 2.488281 -5.5625 L 2.488281 -6 L 2.726562 -5.828125 C 2.914062 -5.683594 3.03125 -5.523438 3.125 -5.378906 L 3.191406 -5.296875 C 3.378906 -5.03125 3.5625 -4.753906 3.761719 -4.488281 C 4.210938 -3.839844 4.6875 -3.164062 5.207031 -2.570312 C 5.640625 -2.054688 6.316406 -1.324219 7.113281 -0.875 C 7.882812 -0.4375 8.542969 -0.34375 9.035156 -0.609375 C 9.523438 -0.886719 9.800781 -1.523438 9.839844 -2.425781 C 9.90625 -4.132812 9.933594 -5.867188 9.972656 -7.550781 L 9.988281 -8.636719 C 10 -8.925781 9.972656 -9.207031 9.921875 -9.46875 Z M 9.921875 -9.46875 "/></g></g></g><g fill="#fff5e6" fill-opacity="1"><g transform="translate(92.585901, 19.571876)"><g><path d="M 10.121094 -2.160156 C 10.078125 -2.34375 10.039062 -2.570312 9.972656 -2.78125 C 9.246094 -5.273438 7.988281 -7.523438 6.753906 -9.601562 C 6.449219 -10.121094 6.054688 -10.371094 5.601562 -10.371094 C 5.335938 -10.371094 5.058594 -10.292969 4.753906 -10.121094 C 4.382812 -9.894531 4.066406 -9.617188 3.878906 -9.335938 C 3.484375 -8.769531 3.152344 -8.132812 2.886719 -7.578125 C 2.410156 -6.582031 2.039062 -5.75 1.722656 -4.953125 C 1.230469 -3.722656 0.859375 -2.675781 0.542969 -1.683594 C 0.359375 -1.125 0.648438 -0.675781 0.992188 -0.515625 C 1.417969 -0.34375 1.828125 -0.53125 2.132812 -1.03125 C 2.277344 -1.285156 2.410156 -1.550781 2.542969 -1.816406 C 2.664062 -2.054688 2.792969 -2.316406 2.941406 -2.554688 C 3.03125 -2.726562 3.285156 -2.902344 3.46875 -2.902344 C 4.160156 -2.886719 4.847656 -2.859375 5.523438 -2.835938 C 6.027344 -2.808594 6.542969 -2.792969 7.046875 -2.769531 C 7.511719 -2.753906 7.640625 -2.488281 7.722656 -2.210938 C 7.828125 -1.816406 7.945312 -1.511719 8.09375 -1.257812 C 8.371094 -0.78125 8.875 -0.582031 9.363281 -0.726562 C 9.867188 -0.886719 10.160156 -1.351562 10.160156 -2 C 10.144531 -2.054688 10.132812 -2.105469 10.121094 -2.160156 Z M 4.25 -5.140625 L 5.3125 -8.039062 L 6.730469 -5.140625 Z M 4.25 -5.140625 "/></g></g></g><g fill="#fff5e6" fill-opacity="1"><g transform="translate(103.246732, 19.571876)"><g><path d="M 9.097656 -3.179688 C 9.035156 -3.628906 8.96875 -4.105469 8.859375 -4.582031 C 8.808594 -4.847656 8.648438 -5.335938 8.199219 -5.46875 C 7.351562 -5.722656 6.488281 -5.617188 5.707031 -5.152344 C 5.535156 -5.046875 5.457031 -4.902344 5.457031 -4.714844 C 5.46875 -4.503906 5.617188 -4.304688 5.839844 -4.210938 C 5.945312 -4.160156 6.078125 -4.144531 6.210938 -4.121094 L 6.316406 -4.09375 C 6.398438 -4.078125 6.503906 -4.078125 6.597656 -4.066406 C 6.847656 -4.054688 7.097656 -4.027344 7.230469 -3.867188 C 7.363281 -3.683594 7.335938 -3.417969 7.324219 -3.164062 C 7.3125 -3.074219 7.3125 -2.980469 7.3125 -2.886719 L 7.3125 -2.859375 C 7.351562 -2.4375 7.074219 -2.304688 6.875 -2.226562 C 5.789062 -1.855469 4.742188 -1.972656 3.855469 -2.597656 C 2.953125 -3.21875 2.53125 -4.078125 2.648438 -5.085938 C 2.769531 -6.066406 3.207031 -6.859375 3.960938 -7.457031 C 5.296875 -8.515625 6.664062 -8.78125 8.105469 -8.25 C 8.238281 -8.199219 8.371094 -8.199219 8.464844 -8.265625 C 8.542969 -8.316406 8.582031 -8.398438 8.597656 -8.515625 C 8.609375 -8.730469 8.554688 -8.992188 8.449219 -9.152344 C 8.132812 -9.683594 7.589844 -9.882812 7.097656 -10.011719 C 5.945312 -10.332031 4.425781 -10.027344 3.125 -9.207031 C 1.734375 -8.316406 0.808594 -6.992188 0.53125 -5.445312 C 0.34375 -4.371094 0.714844 -2.992188 1.46875 -1.90625 C 1.945312 -1.230469 2.78125 -0.382812 4.078125 -0.171875 C 5.152344 0.0117188 5.972656 -0.0273438 6.742188 -0.292969 C 6.835938 -0.316406 6.941406 -0.34375 7.046875 -0.34375 C 7.140625 -0.34375 7.21875 -0.316406 7.296875 -0.277344 C 7.695312 -0.0546875 8.054688 0.0117188 8.332031 -0.105469 C 8.597656 -0.210938 8.792969 -0.503906 8.914062 -0.925781 C 9.007812 -1.285156 9.046875 -1.667969 9.097656 -2.066406 C 9.125 -2.25 9.152344 -2.4375 9.179688 -2.621094 C 9.152344 -2.808594 9.125 -2.992188 9.097656 -3.179688 Z M 9.097656 -3.179688 "/></g></g></g><g fill="#fff5e6" fill-opacity="1"><g transform="translate(112.927557, 19.571876)"><g><path d="M 5.882812 -2.398438 C 5.695312 -2.382812 5.511719 -2.34375 5.324219 -2.292969 C 5.179688 -2.238281 5.019531 -2.199219 4.875 -2.171875 C 4.265625 -2.078125 3.722656 -2.011719 3.21875 -1.988281 C 3.097656 -1.972656 2.980469 -2.066406 2.925781 -2.121094 C 2.875 -2.171875 2.769531 -2.265625 2.769531 -2.382812 C 2.742188 -2.753906 2.742188 -3.140625 2.742188 -3.511719 C 2.742188 -3.640625 2.742188 -3.773438 2.742188 -3.894531 L 2.742188 -4.039062 L 2.886719 -4.039062 C 3.140625 -4.054688 3.390625 -4.066406 3.640625 -4.078125 C 4.25 -4.105469 4.835938 -4.132812 5.417969 -4.183594 C 5.695312 -4.210938 6.011719 -4.304688 6.316406 -4.449219 C 6.570312 -4.570312 6.847656 -4.820312 6.820312 -5.257812 C 6.78125 -5.628906 6.554688 -5.894531 6.199219 -5.972656 C 5.789062 -6.066406 5.3125 -6.09375 4.820312 -6.054688 C 4.4375 -6.011719 4.039062 -5.933594 3.628906 -5.855469 C 3.445312 -5.816406 3.257812 -5.773438 3.058594 -5.75 L 2.886719 -5.722656 L 2.886719 -6.371094 C 2.886719 -6.714844 2.886719 -7.046875 2.902344 -7.378906 C 2.902344 -7.722656 2.902344 -7.894531 3.019531 -8.011719 C 3.140625 -8.121094 3.3125 -8.121094 3.640625 -8.105469 L 3.988281 -8.078125 C 4.53125 -8.054688 5.085938 -8.027344 5.628906 -8.054688 C 6.488281 -8.105469 7.058594 -8.597656 7.03125 -9.257812 C 7.03125 -9.550781 6.902344 -9.828125 6.675781 -10.027344 C 6.425781 -10.25 6.078125 -10.382812 5.683594 -10.382812 C 5.640625 -10.382812 5.601562 -10.382812 5.578125 -10.382812 C 4.742188 -10.332031 3.894531 -10.210938 3.085938 -10.09375 L 2.503906 -10.011719 C 2.304688 -9.988281 2.078125 -9.882812 1.90625 -9.789062 C 1.363281 -9.484375 1.164062 -9.125 1.273438 -8.621094 C 1.285156 -8.515625 1.273438 -8.398438 1.246094 -8.292969 L 1.246094 -8.226562 C 1.179688 -7.855469 1.097656 -7.46875 1.03125 -7.085938 C 0.902344 -6.292969 0.742188 -5.46875 0.636719 -4.648438 C 0.488281 -3.683594 0.371094 -2.554688 0.675781 -1.457031 C 0.914062 -0.597656 1.429688 -0.078125 2.210938 0.078125 C 3.550781 0.359375 4.792969 0.210938 5.921875 -0.34375 C 6.171875 -0.464844 6.410156 -0.648438 6.609375 -0.859375 C 6.914062 -1.191406 6.992188 -1.550781 6.820312 -1.90625 C 6.609375 -2.359375 6.183594 -2.425781 5.882812 -2.398438 Z M 5.882812 -2.398438 "/></g></g></g><g fill="#fff5e6" fill-opacity="1"><g transform="translate(120.462975, 19.571876)"><g><path d="M 7.707031 -2.726562 C 7.285156 -2.96875 6.886719 -3.21875 6.464844 -3.484375 C 6.277344 -3.601562 6.078125 -3.722656 5.894531 -3.839844 L 5.695312 -3.960938 L 5.894531 -4.09375 C 6.039062 -4.171875 6.171875 -4.265625 6.304688 -4.34375 C 6.570312 -4.503906 6.820312 -4.664062 7.046875 -4.835938 C 8.011719 -5.578125 8.371094 -6.515625 8.144531 -7.617188 C 7.894531 -8.792969 7.140625 -9.578125 5.972656 -9.855469 C 4.875 -10.121094 3.828125 -10.066406 2.875 -9.683594 C 2.792969 -9.65625 2.570312 -9.578125 2.371094 -9.640625 C 2.160156 -9.722656 1.972656 -9.761719 1.828125 -9.761719 C 1.695312 -9.761719 1.578125 -9.722656 1.484375 -9.667969 C 1.285156 -9.5625 1.152344 -9.3125 1.074219 -8.925781 C 0.542969 -6.132812 0.371094 -3.601562 0.554688 -1.21875 C 0.597656 -0.597656 0.953125 -0.183594 1.457031 -0.171875 C 1.988281 -0.160156 2.332031 -0.542969 2.410156 -1.179688 C 2.464844 -1.535156 2.488281 -1.90625 2.53125 -2.292969 L 2.609375 -3.058594 L 2.792969 -2.96875 C 2.859375 -2.925781 2.925781 -2.902344 2.980469 -2.875 C 3.085938 -2.820312 3.179688 -2.78125 3.257812 -2.726562 C 3.550781 -2.570312 3.828125 -2.398438 4.105469 -2.226562 C 4.636719 -1.894531 5.179688 -1.5625 5.722656 -1.246094 C 6.132812 -1.007812 6.554688 -0.769531 6.992188 -0.648438 C 7.589844 -0.476562 8.199219 -0.792969 8.398438 -1.378906 C 8.621094 -2.066406 8.144531 -2.488281 7.707031 -2.726562 Z M 2.886719 -5.789062 L 2.703125 -5.761719 L 2.714844 -5.945312 C 2.742188 -6.105469 2.742188 -6.277344 2.726562 -6.4375 C 2.726562 -6.925781 2.714844 -7.429688 3.257812 -7.800781 C 3.945312 -8.25 4.730469 -8.332031 5.601562 -8.039062 C 5.882812 -7.945312 6.054688 -7.761719 6.078125 -7.535156 C 6.121094 -7.285156 5.988281 -7.019531 5.722656 -6.847656 C 4.914062 -6.277344 3.988281 -5.933594 2.886719 -5.789062 Z M 2.886719 -5.789062 "/></g></g></g></svg>